<svg xmlns="http://www.w3.org/2000/svg" viewBox="0 0 346.05 350"><defs><style>.cls-1{fill:#231f20;}.cls-2{fill:#fff;fill-rule:evenodd;}</style></defs><g id="Layer_2" data-name="Layer 2"><g id="Layer_1-2" data-name="Layer 1"><path class="cls-1" d="M57.5,10.49,283,.06a60.34,60.34,0,0,1,62.79,66.06L330.17,227.5c0,2.27-1.36,13.59-2.23,23.13l-4.34,44.89A60.13,60.13,0,0,1,300,337.68c-.5,0-3.83,3.31-10.91,6.6a59.81,59.81,0,0,1-31.56,5.41l-28.33-2.84-5.73-.58-23.93-2.4-16.44-1.66-1.37-.15L72.23,331a60.25,60.25,0,0,1-54-54.56L6.27,143.1,4.16,120,1.37,88.68.25,76.11A60.29,60.29,0,0,1,57.5,10.49Z"/><path class="cls-2" d="M300.62,171.1a7,7,0,0,1-2.15,3.68c-5.77,5.31-20.73.58-27.21-1.65-1-.34-1.21-.4-1.94,0a3.12,3.12,0,0,1-4.46-2.36c-2.14-.8-4.31-2.49-6.31-2.11-3.49.7-6.93,1-10.52,1.47l-10.63,1.18c-2.46.25-3.82-.17-5,1.26s-6.94,8.26-7.24,9.08c3.69,3.48,7.33,6.4,11.33,9.67,1.92,1.57,10.64,8.5,12.26,9.32,1.66-2.08,5-.93,6.42.86s-1.21,4.71-2.31,6.42c-1.4,2.16-2.64,4.73-5.56,2.94-2-1.24.22-4.77.33-6.89-4.47-3-9.58-5.3-14.1-8.41a74.84,74.84,0,0,0-6.79-4.23c-1.48-.75-5.54-3.89-6.72-3.92-1.46.76-2.36,3.39-4.35,2.94a47.81,47.81,0,0,1-6.36-2.11,31.13,31.13,0,0,1-4.55-2.18c-2.91-1.82-2.4-.44-2.48-5.75-1.1-.75-6.08-1.6-7.74-1.9-3.2-.57-22.26-5.32-23-5.29-1.16,1.4-2.22,5.71-4.68,5-1.58-.43-2.36-1.16-2.23-2.57.1-1.17.42-2.43.58-3.56.29-2.12.36-5.71,2.89-6a5.86,5.86,0,0,1,3.75,1.11c1.37.9,1.09,1.48,1.42,2.7,1.09.55,26.63,3.55,29.47,2.79.35-1.45.29-3.84.49-5.49s.31-3.56.51-5.33c.31-2.88,0-2.28-1.82-4.35-4.3-5-8.4-10.14-12.37-15.4-2.63-3.5-2.35-3.22-6.76-4.67-1.62-.54-1.22.24-2.4.32a4.54,4.54,0,0,1-2.81-1.15c-.68-.7-.29-1.4-1.25-2-1.23-.77-3.8-1.8-5.51-2.81-4.69-2.74-9.77-5.77-12.74-10.12-1.46-2.14-3.29-6.36-.13-9.64,3.6-3.73,9.72-3,14.48-2.42,7.56.87,22.71,6.57,28.94,10.64,5.44,3.54,13,8,14.69,14.44a7.11,7.11,0,0,1-5,8.33,15.15,15.15,0,0,1-5.09.07c-1.06-.11-4.53-.28-5-1.24.46-.58.33-.48,1.11-.51,3-.09,6.7,1.05,8.48-2.37s-2.05-6.7-4.79-8.81c-7.18-5.49-30.94-16.07-41.43-14.81-1.88.22-3.43.71-4.1,2.73-1,3.1,3.23,6.32,5.93,8.31,2.21,1.62,8.27,5.24,11.08,6,1.36-2.77.24-9.4,4.29-9.82a6.32,6.32,0,0,1,5.14,2.08c1.36,1.7,0,3.19-.72,5.42,1.59,1.3,3.26,3,4.88,4.57l9.29,9.32c.91.9,4,4.28,4.81,4.52.66-1.34.57-1.35,1.68-2.09,2.45-1.66,4-1.42,7-.41a187.33,187.33,0,0,1,22.63,9.23c2,1,3,1.33,3.89,3.16,1,2.28.87,2.53.15,4.73l26.78-.3c.62-1.17.87-3,1.89-3.76,2.59-1.87,8.5,1.71,6.86,4.87-3.75,7.2-6.55,6.27-1.08,8.18,5.22,1.82,13.57,4,18.07,2.48a3.51,3.51,0,0,0,1.82-5.47,15.94,15.94,0,0,0-4.78-4.76c-6.92-5.06-21.44-11.22-30-13.36-4.55-1.15-10.62-2.48-13.76-.52a4.17,4.17,0,0,0-1.14,6c1.74,2.67,4.44,3.56,4.19,4.94-1,.37-2.53-1.15-3.43-1.79a27.47,27.47,0,0,1-3-2.5c-1.87-1.82-2.92-3.74-2.4-6.5.72-3.84,2.53-4.77,4.95-5.76,6.28-2.51,17.68.56,23.59,2.19,7.79,2.14,34.19,13.47,31.83,24.13"/><path class="cls-2" d="M191.88,170c-1.83-.41-5.4-2.64-7.22-3.57a44.53,44.53,0,0,0-7.31-3.35c-2.14-.86-29.71-11.53-24.63-2.28,2.67,4.87,11.1,6.75,10.13,8.49-1.21.32-11.53-4.57-13.35-10.14-2.15-6.59,7.77-6.29,12.16-5.53,10.61,1.83,17.65,4.08,27,9.79,2.18,1.35,4.51,3.92,3.26,6.59"/><path class="cls-2" d="M274.18,210a14.37,14.37,0,0,1-7.8.77c-1.73-.23-7.84-1.7-8.8-3,1.56-1.52,8.16,2.72,13.38,1,9.83-3.22-18.68-15.23-19.48-15.61-4.72-2.17-12-3.53-15.16-5,1-2.91,4.47-3,7.18-2.42a66,66,0,0,1,9.28,2.69,78,78,0,0,1,16.82,9.18,24.93,24.93,0,0,1,5.81,5.67c1.37,2.16,2.16,5.1-1.23,6.69"/><path class="cls-2" d="M212.13,194.84c-12.11,11-73.81,59.31-173.08,9.09,52,23.28,118.07,23.75,161.78-13.72q.31.16.72.42a30,30,0,0,0,4.54,2.18,48.71,48.71,0,0,0,6,2"/></g></g></svg>