<svg xmlns="http://www.w3.org/2000/svg" viewBox="0 0 346.05 350"><defs><style>.cls-1{fill:#fff;}.cls-2{fill:#231f20;fill-rule:evenodd;}</style></defs><g id="Layer_2" data-name="Layer 2"><g id="Layer_1-2" data-name="Layer 1"><path class="cls-1" d="M57.5,10.49,283,.06a60.34,60.34,0,0,1,62.79,66.06L330.17,227.5c0,2.27-1.36,13.59-2.23,23.13l-4.34,44.89A60.13,60.13,0,0,1,300,337.68c-.5,0-3.83,3.31-10.91,6.6a59.81,59.81,0,0,1-31.56,5.41l-28.33-2.84-5.73-.58-23.93-2.4-16.44-1.66-1.37-.15L72.23,331a60.25,60.25,0,0,1-54-54.56L6.27,143.1,4.16,120,1.37,88.68.25,76.11A60.29,60.29,0,0,1,57.5,10.49Z"/><path class="cls-2" d="M303.74,175.85a7.08,7.08,0,0,1-2.15,3.67c-5.77,5.32-20.74.59-27.21-1.65-1-.33-1.21-.39-1.94-.05a3.11,3.11,0,0,1-4.46-2.35c-2.15-.81-4.32-2.5-6.31-2.11-3.49.69-6.93,1-10.52,1.46L240.52,176c-2.46.24-3.83-.18-5.05,1.25s-6.93,8.27-7.23,9.08c3.68,3.48,7.33,6.4,11.32,9.67,1.93,1.57,10.64,8.51,12.27,9.32,1.66-2.07,5-.93,6.41.86s-1.2,4.71-2.31,6.42c-1.4,2.16-2.64,4.74-5.55,2.94-2-1.24.22-4.76.33-6.89-4.48-3-9.59-5.3-14.1-8.41a78.19,78.19,0,0,0-6.8-4.23c-1.48-.74-5.53-3.89-6.72-3.91-1.45.75-2.35,3.38-4.35,2.93a48.3,48.3,0,0,1-6.36-2.11,30.61,30.61,0,0,1-4.55-2.18c-2.9-1.81-2.39-.44-2.47-5.75-1.11-.75-6.08-1.6-7.74-1.9-3.21-.57-22.26-5.31-23-5.29-1.17,1.4-2.22,5.72-4.68,5-1.58-.43-2.36-1.16-2.24-2.57.11-1.16.43-2.42.59-3.56.29-2.12.35-5.71,2.89-6a6,6,0,0,1,3.74,1.11c1.37.9,1.1,1.49,1.43,2.7,1.09.55,26.63,3.55,29.46,2.79.36-1.44.29-3.84.5-5.49s.31-3.55.5-5.32c.31-2.89,0-2.29-1.81-4.36-4.31-5-8.41-10.13-12.37-15.39-2.64-3.5-2.35-3.23-6.76-4.68-1.62-.54-1.22.25-2.4.33a4.64,4.64,0,0,1-2.81-1.15c-.68-.7-.29-1.4-1.26-2-1.22-.78-3.8-1.81-5.51-2.81-4.68-2.75-9.76-5.78-12.73-10.12-1.46-2.15-3.3-6.36-.13-9.65,3.59-3.73,9.72-3,14.48-2.42,7.56.87,22.7,6.57,28.94,10.64,5.44,3.54,13,8,14.68,14.44a7.1,7.1,0,0,1-5,8.33,15.16,15.16,0,0,1-5.09.07c-1.07-.11-4.54-.27-5-1.24.46-.58.33-.48,1.12-.5,3-.09,6.7,1,8.48-2.38s-2.05-6.69-4.8-8.8c-7.18-5.5-30.93-16.08-41.43-14.82-1.87.22-3.42.71-4.1,2.73-1,3.1,3.24,6.32,5.94,8.32,2.2,1.62,8.27,5.23,11.08,6,1.36-2.77.24-9.41,4.28-9.82a6.33,6.33,0,0,1,5.15,2.07c1.35,1.7,0,3.2-.72,5.43,1.59,1.29,3.25,3,4.87,4.56l9.29,9.32c.91.91,4,4.28,4.82,4.52.66-1.34.57-1.34,1.67-2.09,2.46-1.65,4-1.42,7-.41a189.65,189.65,0,0,1,22.63,9.23c2,1,3,1.33,3.88,3.16,1,2.28.87,2.54.15,4.73l26.79-.3c.62-1.17.86-3,1.88-3.75,2.6-1.88,8.5,1.71,6.87,4.86-3.75,7.2-6.56,6.27-1.08,8.18,5.22,1.82,13.56,4,18.06,2.48a3.51,3.51,0,0,0,1.83-5.47,16,16,0,0,0-4.79-4.76c-6.91-5-21.44-11.22-30-13.36-4.55-1.14-10.62-2.47-13.77-.52a4.18,4.18,0,0,0-1.14,6c1.75,2.66,4.45,3.56,4.2,4.94-1,.36-2.53-1.15-3.44-1.8a29.47,29.47,0,0,1-3-2.5c-1.86-1.81-2.91-3.73-2.4-6.5.73-3.84,2.54-4.77,4.95-5.75,6.28-2.52,17.69.55,23.6,2.18,7.78,2.15,34.18,13.47,31.83,24.14"/><path class="cls-2" d="M195,174.77c-1.83-.42-5.4-2.65-7.22-3.57a44.54,44.54,0,0,0-7.31-3.36c-2.15-.86-29.72-11.53-24.63-2.28,2.67,4.88,11.09,6.75,10.13,8.49-1.22.33-11.53-4.56-13.36-10.14-2.14-6.58,7.78-6.29,12.16-5.53,10.62,1.83,17.65,4.08,27,9.8,2.19,1.34,4.52,3.91,3.27,6.59"/><path class="cls-2" d="M277.29,214.7a14.24,14.24,0,0,1-7.79.77c-1.74-.23-7.85-1.7-8.8-3,1.55-1.52,8.15,2.72,13.38,1,9.83-3.21-18.68-15.23-19.49-15.6-4.72-2.17-12-3.54-15.16-5,1-2.92,4.47-3.05,7.18-2.43a65.76,65.76,0,0,1,9.29,2.69,78.22,78.22,0,0,1,16.81,9.19,25.09,25.09,0,0,1,5.81,5.66c1.38,2.16,2.16,5.1-1.23,6.69"/><path class="cls-2" d="M215.24,199.58c-12.1,11-73.8,59.31-173.08,9.1C94.14,232,160.24,232.42,203.94,195c.22.12.46.26.72.43a30.44,30.44,0,0,0,4.54,2.17,47.63,47.63,0,0,0,6,2"/></g></g></svg>