<svg xmlns="http://www.w3.org/2000/svg" viewBox="0 0 346.05 350"><defs><style>.cls-1{fill:#fff;}.cls-2{fill:#184275;}.cls-2,.cls-3{fill-rule:evenodd;}.cls-3{fill:#3f96d2;}</style></defs><g id="Layer_2" data-name="Layer 2"><g id="Layer_1-2" data-name="Layer 1"><path class="cls-1" d="M57.5,10.49,283,.06a60.34,60.34,0,0,1,62.79,66.06L330.17,227.5c0,2.27-1.36,13.59-2.23,23.13l-4.34,44.89A60.13,60.13,0,0,1,300,337.68c-.5,0-3.83,3.31-10.91,6.6a59.81,59.81,0,0,1-31.56,5.41l-28.33-2.84-5.73-.58-23.93-2.4-16.44-1.66-1.37-.15L72.23,331a60.25,60.25,0,0,1-54-54.56L6.27,143.1,4.16,120,1.37,88.68.25,76.11A60.29,60.29,0,0,1,57.5,10.49Z"/><path class="cls-2" d="M299,176.89a7.15,7.15,0,0,1-2.15,3.68c-5.77,5.31-20.73.58-27.21-1.65-1-.34-1.21-.4-1.94-.06a3.11,3.11,0,0,1-4.46-2.35c-2.14-.81-4.31-2.5-6.31-2.11-3.49.69-6.93,1-10.52,1.46l-10.63,1.19c-2.46.25-3.82-.18-5,1.26s-6.93,8.26-7.23,9.07c3.68,3.49,7.33,6.41,11.33,9.68,1.92,1.56,10.63,8.5,12.26,9.31,1.66-2.07,5.05-.93,6.41.86s-1.2,4.71-2.31,6.42c-1.4,2.16-2.64,4.74-5.55,2.94-2-1.24.22-4.76.33-6.89-4.47-3-9.58-5.29-14.1-8.4a77.25,77.25,0,0,0-6.79-4.24c-1.48-.74-5.54-3.88-6.73-3.91-1.45.75-2.35,3.38-4.34,2.93a46,46,0,0,1-6.36-2.11,30.19,30.19,0,0,1-4.56-2.17c-2.9-1.82-2.39-.45-2.47-5.75-1.1-.76-6.08-1.61-7.74-1.91-3.2-.56-22.26-5.31-23-5.28-1.17,1.4-2.22,5.71-4.68,5-1.58-.44-2.36-1.16-2.23-2.57.1-1.17.42-2.43.58-3.56.29-2.13.35-5.71,2.89-6a5.94,5.94,0,0,1,3.74,1.11c1.38.9,1.1,1.49,1.43,2.7,1.09.55,26.63,3.55,29.46,2.79.36-1.44.3-3.83.5-5.49s.31-3.55.51-5.32c.31-2.89,0-2.29-1.82-4.36-4.3-5-8.4-10.13-12.37-15.39-2.63-3.5-2.35-3.22-6.76-4.68-1.62-.54-1.22.25-2.4.33a4.66,4.66,0,0,1-2.81-1.15c-.68-.7-.29-1.4-1.26-2-1.22-.77-3.79-1.81-5.5-2.81-4.69-2.74-9.77-5.77-12.74-10.12-1.46-2.15-3.29-6.36-.13-9.65,3.59-3.72,9.72-3,14.48-2.41,7.56.86,22.71,6.57,28.94,10.63,5.44,3.54,13,8,14.69,14.45a7.11,7.11,0,0,1-5,8.32,14.9,14.9,0,0,1-5.09.07c-1.06-.1-4.53-.27-5-1.24.46-.57.32-.48,1.11-.5,3-.09,6.7,1,8.48-2.38s-2-6.69-4.79-8.8c-7.19-5.5-30.94-16.07-41.43-14.82-1.88.23-3.43.71-4.1,2.73-1,3.1,3.23,6.33,5.93,8.32,2.2,1.62,8.27,5.23,11.08,6,1.36-2.77.24-9.4,4.29-9.82a6.32,6.32,0,0,1,5.14,2.07c1.36,1.7,0,3.2-.72,5.43,1.59,1.29,3.25,3,4.87,4.56l9.29,9.33c.92.9,4,4.28,4.82,4.51.66-1.33.57-1.34,1.68-2.09,2.45-1.65,4-1.41,7-.4a185.72,185.72,0,0,1,22.63,9.23c2.05,1,3,1.32,3.89,3.16,1,2.27.86,2.53.15,4.73l26.78-.3c.62-1.17.87-3,1.88-3.76,2.6-1.88,8.51,1.71,6.87,4.86-3.75,7.2-6.56,6.27-1.08,8.19,5.22,1.81,13.57,4,18.06,2.48a3.52,3.52,0,0,0,1.83-5.48A15.92,15.92,0,0,0,288.2,170c-6.92-5.06-21.44-11.22-30-13.37-4.55-1.14-10.62-2.47-13.76-.51a4.16,4.16,0,0,0-1.15,6c1.75,2.66,4.45,3.56,4.2,4.94-1,.36-2.53-1.15-3.43-1.8a28.57,28.57,0,0,1-3-2.49c-1.87-1.82-2.92-3.74-2.4-6.5.72-3.85,2.53-4.78,5-5.76,6.28-2.52,17.68.56,23.59,2.19,7.79,2.14,34.19,13.47,31.83,24.13"/><path class="cls-2" d="M190.27,175.81c-1.83-.42-5.4-2.65-7.22-3.57a44.54,44.54,0,0,0-7.31-3.36c-2.15-.86-29.72-11.53-24.63-2.27,2.67,4.87,11.1,6.75,10.13,8.48-1.21.33-11.53-4.56-13.36-10.14-2.14-6.58,7.78-6.29,12.16-5.52,10.62,1.83,17.65,4.08,27,9.79,2.19,1.35,4.52,3.91,3.27,6.59"/><path class="cls-2" d="M272.57,215.74a14.19,14.19,0,0,1-7.8.77c-1.73-.23-7.85-1.7-8.8-3,1.56-1.53,8.16,2.72,13.38,1,9.83-3.22-18.68-15.24-19.48-15.61-4.72-2.17-12-3.53-15.17-5,1-2.92,4.48-3.05,7.19-2.43a67.39,67.39,0,0,1,9.28,2.69A78.06,78.06,0,0,1,268,203.39a24.93,24.93,0,0,1,5.81,5.67c1.37,2.16,2.16,5.1-1.23,6.68"/><path class="cls-3" d="M210.52,200.62c-12.11,11-73.81,59.32-173.08,9.1C89.41,233,155.51,233.46,199.22,196c.21.12.45.26.71.43a31.13,31.13,0,0,0,4.55,2.18,48.65,48.65,0,0,0,6,2"/></g></g></svg>