<svg xmlns="http://www.w3.org/2000/svg" viewBox="0 0 365.52 161.56"><defs><style>.cls-1{fill:#ffffff;}.cls-1,.cls-2{fill-rule:evenodd;}.cls-2{fill:#ffffff;}.cls-3{font-size:85.62px;font-family:AllRoundGothic-Demi, AllRoundGothic Demi;font-weight:300;}.cls-3,.cls-4{fill:#ffffff;}</style></defs><g id="Layer_2" data-name="Layer 2"><g id="Layer_1-2" data-name="Layer 1"><path class="cls-1" d="M.15,84a7.14,7.14,0,0,0,2.19,3.73c5.86,5.4,21.08.6,27.66-1.67,1-.34,1.23-.41,2-.06a3.17,3.17,0,0,0,4.54-2.39c2.18-.82,4.38-2.54,6.41-2.14,3.54.7,7,1.06,10.69,1.48L64.42,84.2c2.5.25,3.89-.18,5.13,1.28s7,8.4,7.36,9.23c-3.75,3.53-7.46,6.51-11.52,9.83-2,1.59-10.81,8.64-12.47,9.47-1.68-2.11-5.13-1-6.52.87-1.5,2,1.23,4.79,2.35,6.53,1.42,2.2,2.68,4.82,5.65,3,2.05-1.26-.23-4.84-.34-7,4.55-3.08,9.75-5.38,14.34-8.54a73.74,73.74,0,0,1,6.9-4.3c1.51-.76,5.63-4,6.84-4,1.47.76,2.39,3.44,4.42,3A47.94,47.94,0,0,0,93,101.4a30.2,30.2,0,0,0,4.63-2.21c2.95-1.85,2.43-.45,2.51-5.84,1.13-.77,6.19-1.63,7.87-1.94,3.26-.58,22.64-5.4,23.38-5.37,1.19,1.42,2.26,5.8,4.77,5.11,1.6-.44,2.39-1.18,2.26-2.61-.1-1.19-.43-2.47-.59-3.62-.3-2.16-.36-5.81-2.94-6.11a6,6,0,0,0-3.8,1.12c-1.4.92-1.12,1.51-1.45,2.75-1.11.55-27.08,3.61-30,2.83-.36-1.46-.29-3.9-.5-5.58s-.32-3.61-.52-5.41c-.31-2.94,0-2.32,1.85-4.43,4.38-5.11,8.55-10.3,12.58-15.65,2.67-3.55,2.38-3.27,6.87-4.75,1.65-.55,1.24.25,2.44.33a4.63,4.63,0,0,0,2.85-1.17c.7-.71.3-1.42,1.28-2,1.24-.79,3.86-1.84,5.6-2.86,4.76-2.79,9.93-5.87,12.95-10.29,1.48-2.18,3.35-6.46.13-9.8-3.65-3.79-9.88-3-14.72-2.46-7.69.88-23.08,6.68-29.42,10.81-5.53,3.6-13.23,8.18-14.93,14.69a7.21,7.21,0,0,0,5.1,8.46,15.12,15.12,0,0,0,5.17.07c1.08-.11,4.61-.28,5.09-1.26-.47-.58-.33-.48-1.13-.51-3-.09-6.81,1.06-8.62-2.41s2.08-6.81,4.87-9c7.3-5.6,31.45-16.35,42.12-15.07,1.91.23,3.48.72,4.17,2.78,1,3.15-3.29,6.42-6,8.45-2.25,1.65-8.41,5.32-11.27,6.12-1.38-2.81-.24-9.56-4.36-10A6.45,6.45,0,0,0,116,36.7c-1.37,1.73,0,3.26.73,5.52-1.61,1.32-3.3,3.09-5,4.64l-9.44,9.48c-.93.92-4.06,4.35-4.9,4.59-.67-1.36-.58-1.36-1.7-2.12-2.5-1.68-4.08-1.44-7.14-.42a189.73,189.73,0,0,0-23,9.39c-2.09,1-3.09,1.35-3.95,3.21-1.06,2.31-.88,2.58-.15,4.81L34.3,75.49c-.63-1.19-.88-3.07-1.92-3.82-2.64-1.9-8.64,1.74-7,5,3.8,7.32,6.66,6.37,1.09,8.32C21.19,86.78,12.71,89,8.14,87.46a3.58,3.58,0,0,1-1.86-5.57,16.21,16.21,0,0,1,4.86-4.83c7-5.14,21.8-11.41,30.5-13.59,4.63-1.16,10.79-2.51,14-.52a4.23,4.23,0,0,1,1.16,6.13c-1.77,2.71-4.52,3.62-4.27,5,1,.36,2.58-1.18,3.5-1.83a30.68,30.68,0,0,0,3.07-2.54c1.9-1.85,3-3.8,2.44-6.61-.74-3.91-2.58-4.85-5-5.85-6.38-2.56-18,.57-24,2.22C24.59,61.68-2.24,73.2.15,84"/><path class="cls-1" d="M110.7,82.94c1.86-.43,5.49-2.69,7.33-3.63a44.9,44.9,0,0,1,7.44-3.41c2.18-.88,30.21-11.73,25-2.32-2.72,5-11.28,6.86-10.3,8.63,1.23.33,11.72-4.64,13.58-10.31,2.17-6.69-7.91-6.39-12.37-5.62-10.79,1.87-17.94,4.15-27.4,10-2.23,1.37-4.59,4-3.32,6.7"/><path class="cls-1" d="M27,123.53a14.4,14.4,0,0,0,7.92.79c1.76-.24,8-1.73,8.95-3-1.59-1.55-8.29,2.77-13.61,1-10-3.27,19-15.49,19.81-15.87,4.8-2.2,12.23-3.59,15.42-5.1-1-3-4.55-3.1-7.31-2.47a66.85,66.85,0,0,0-9.43,2.74A79.31,79.31,0,0,0,31.69,111a25.36,25.36,0,0,0-5.91,5.76c-1.39,2.19-2.19,5.18,1.26,6.79"/><path class="cls-2" d="M90.87,109.92c10.73,11.15,59.59,48.52,153.46,9.25-52,21.76-104.69,24.14-143.44-14-.19.12-.4.26-.64.44a26.39,26.39,0,0,1-4,2.21,39,39,0,0,1-5.35,2.06"/><text class="cls-3" transform="translate(168.09 71.66)">Sudd</text><path class="cls-4" d="M170.91,81.44h16.2c15.51,0,23.85,9,23.85,22.54s-8.34,22.54-23.85,22.54h-16.2Zm16.2,43.36c14.55,0,21.92-8.34,21.92-20.82s-7.37-20.82-21.92-20.82H172.84V124.8Z"/><path class="cls-4" d="M216.69,105.56c0-9.37,5.65-14,13.85-14s13.79,4.62,13.79,14v.62h-1.72v-.62c0-8.34-4.83-12.34-12.07-12.34s-12.06,4-12.06,12.34v21h-1.79Z"/><path class="cls-4" d="M247.85,109.49c0-10.34,7.58-17.92,18.33-17.92s18.34,7.58,18.34,17.92-7.58,17.93-18.34,17.93S247.85,119.83,247.85,109.49Zm34.81,0c0-9.3-6.62-16.27-16.48-16.27s-16.47,7-16.47,16.27,6.62,16.27,16.47,16.27S282.66,118.8,282.66,109.49Z"/><path class="cls-4" d="M289.9,108.67c0-11.24,6.75-17.1,16.82-17.1s16.82,5.86,16.82,17.1v17.85h-1.79V108.67c0-9.86-5.93-15.45-15-15.45s-15,5.59-15,15.45v17.85H289.9Z"/><path class="cls-4" d="M328.92,109.49c0-10.34,7.58-17.92,18.33-17.92s18.27,7.58,18.27,17.92v.14H330.78c.07,9.24,6.62,16.13,16.47,16.13,7,0,12.34-3.44,14.89-8.82h1.93c-2.62,6.34-8.82,10.48-16.82,10.48C336.5,127.42,328.92,119.83,328.92,109.49ZM363.66,108c-.69-8.55-7.1-14.76-16.41-14.76S331.47,99.43,330.78,108Z"/><path class="cls-4" d="M99.64,159.35l3.64-7.83h.23l3.63,7.83h-.25l-3.55-7.66h.11l-3.55,7.66Zm1.2-2.36.11-.21h4.87l.11.21Z"/><path class="cls-4" d="M113.09,153.78v-.22h3.3v.22Zm1.12,5.57v-6.92a1.49,1.49,0,0,1,.36-1,1.35,1.35,0,0,1,1-.39,1.91,1.91,0,0,1,.62.1,1.23,1.23,0,0,1,.51.32l-.16.15a1.12,1.12,0,0,0-.43-.27,1.55,1.55,0,0,0-.53-.09,1.16,1.16,0,0,0-.89.33,1.34,1.34,0,0,0-.3.94v6.86Z"/><path class="cls-4" d="M123.19,159.35v-5.79h.22v1.61l0,0a2.21,2.21,0,0,1,.82-1.18,2.46,2.46,0,0,1,1.47-.42v.22h-.06a2.07,2.07,0,0,0-1.63.67,2.67,2.67,0,0,0-.58,1.82v3.11Z"/><path class="cls-4" d="M133.17,152a.28.28,0,0,1-.2-.09.27.27,0,0,1-.09-.2.29.29,0,0,1,.09-.21.32.32,0,0,1,.2-.08.29.29,0,0,1,.3.29.27.27,0,0,1-.09.2A.26.26,0,0,1,133.17,152Zm-.11,7.39v-5.79h.23v5.79Z"/><path class="cls-4" d="M143.61,159.39a2.84,2.84,0,0,1-1.46-.38,2.73,2.73,0,0,1-1-1,3.33,3.33,0,0,1,0-3,2.73,2.73,0,0,1,1-1,3,3,0,0,1,2.63-.13,2.3,2.3,0,0,1,.91.7l-.16.17a2,2,0,0,0-.84-.68,2.81,2.81,0,0,0-2.43.12,2.52,2.52,0,0,0-.93,1,2.8,2.8,0,0,0-.34,1.41,2.84,2.84,0,0,0,.34,1.42,2.6,2.6,0,0,0,.93,1,2.66,2.66,0,0,0,1.35.34,2.58,2.58,0,0,0,1.08-.22,2,2,0,0,0,.84-.67l.16.17a2.4,2.4,0,0,1-.91.7A2.85,2.85,0,0,1,143.61,159.39Z"/><path class="cls-4" d="M154.63,159.39a2.62,2.62,0,0,1-1.11-.21,1.48,1.48,0,0,1-.7-.57,1.51,1.51,0,0,1-.24-.85,1.53,1.53,0,0,1,.19-.76,1.43,1.43,0,0,1,.65-.58,2.88,2.88,0,0,1,1.22-.21H157v.21h-2.32a2.11,2.11,0,0,0-1.41.37,1.23,1.23,0,0,0-.42,1,1.28,1.28,0,0,0,.48,1,2.15,2.15,0,0,0,1.35.38,2.17,2.17,0,0,0,2.2-1.47l.11.14a2.2,2.2,0,0,1-.82,1.12A2.5,2.5,0,0,1,154.63,159.39Zm2.2,0v-3.78a1.81,1.81,0,0,0-.47-1.37,1.89,1.89,0,0,0-1.36-.46,3,3,0,0,0-1.19.23,3,3,0,0,0-.92.58l-.16-.16a3.12,3.12,0,0,1,1-.62,3.3,3.3,0,0,1,1.24-.24,2.08,2.08,0,0,1,1.54.52,2,2,0,0,1,.54,1.51v3.79Z"/><path class="cls-4" d="M166.48,159.39a3.81,3.81,0,0,1-1.32-.23,2.43,2.43,0,0,1-.94-.57l.13-.18a2.7,2.7,0,0,0,.88.53,3.13,3.13,0,0,0,1.25.23,2.46,2.46,0,0,0,1.48-.35,1.14,1.14,0,0,0,.45-.93.92.92,0,0,0-.22-.66,1.41,1.41,0,0,0-.56-.37,6.73,6.73,0,0,0-.78-.21l-.85-.16a3.76,3.76,0,0,1-.78-.26,1.36,1.36,0,0,1-.56-.44,1.21,1.21,0,0,1-.22-.77,1.3,1.3,0,0,1,.22-.73,1.53,1.53,0,0,1,.66-.55,2.82,2.82,0,0,1,1.17-.21,3.56,3.56,0,0,1,1.07.16,2.7,2.7,0,0,1,.85.43l-.14.18a2.59,2.59,0,0,0-.81-.42,3.55,3.55,0,0,0-1-.14,2.15,2.15,0,0,0-1.38.37,1.15,1.15,0,0,0-.43.91,1,1,0,0,0,.21.68,1.3,1.3,0,0,0,.57.38,4.85,4.85,0,0,0,.78.22l.84.16a4.09,4.09,0,0,1,.77.25,1.39,1.39,0,0,1,.57.43,1.19,1.19,0,0,1,.21.75,1.34,1.34,0,0,1-.23.77,1.56,1.56,0,0,1-.72.54A3.35,3.35,0,0,1,166.48,159.39Z"/><path class="cls-4" d="M183.12,159.35l3.64-7.83H187l3.64,7.83h-.26l-3.55-7.66h.12l-3.55,7.66Zm1.2-2.36.11-.21h4.87l.11.21Z"/><path class="cls-4" d="M199.8,159.39a2.92,2.92,0,0,1-1.49-.38,2.75,2.75,0,0,1-1-1,3,3,0,0,1-.38-1.52,3.18,3.18,0,0,1,.35-1.51,2.58,2.58,0,0,1,1-1,2.54,2.54,0,0,1,1.37-.38,2.64,2.64,0,0,1,1.37.36,2.55,2.55,0,0,1,1,1,3,3,0,0,1,.35,1.49v0H197v-.21h5.12l-.09.17a2.94,2.94,0,0,0-.32-1.37,2.52,2.52,0,0,0-.88-.95,2.35,2.35,0,0,0-1.27-.35,2.4,2.4,0,0,0-1.27.35,2.52,2.52,0,0,0-.88.95,2.94,2.94,0,0,0-.32,1.37v0a2.83,2.83,0,0,0,.35,1.41,2.6,2.6,0,0,0,.95,1,2.77,2.77,0,0,0,1.38.34,2.7,2.7,0,0,0,1.1-.22,2.13,2.13,0,0,0,.87-.67l.16.15a2.45,2.45,0,0,1-.94.72A3,3,0,0,1,199.8,159.39Z"/><path class="cls-4" d="M209.75,159.35v-5.79H210v1.61l0,0a2.16,2.16,0,0,1,.82-1.18,2.46,2.46,0,0,1,1.47-.42v.22h-.07a2.06,2.06,0,0,0-1.62.67,2.67,2.67,0,0,0-.58,1.82v3.11Z"/><path class="cls-4" d="M219.74,152a.28.28,0,0,1-.2-.09.27.27,0,0,1-.09-.2.29.29,0,0,1,.09-.21.32.32,0,0,1,.2-.08.27.27,0,0,1,.29.29.3.3,0,0,1-.08.2A.29.29,0,0,1,219.74,152Zm-.11,7.39v-5.79h.22v5.79Z"/><path class="cls-4" d="M229.5,159.39a2.68,2.68,0,0,1-1.11-.21,1.58,1.58,0,0,1-.7-.57,1.51,1.51,0,0,1-.24-.85,1.54,1.54,0,0,1,.2-.76,1.46,1.46,0,0,1,.64-.58,2.94,2.94,0,0,1,1.22-.21h2.32v.21H229.5a2.1,2.1,0,0,0-1.4.37,1.23,1.23,0,0,0-.42,1,1.28,1.28,0,0,0,.48,1,2.14,2.14,0,0,0,1.34.38,2.17,2.17,0,0,0,2.21-1.47l.11.14A2.25,2.25,0,0,1,231,159,2.51,2.51,0,0,1,229.5,159.39Zm2.21,0v-3.78a1.85,1.85,0,0,0-.47-1.37,1.9,1.9,0,0,0-1.37-.46,3,3,0,0,0-1.18.23,3,3,0,0,0-.92.58l-.16-.16a3,3,0,0,1,1-.62,3.26,3.26,0,0,1,1.24-.24,2.1,2.1,0,0,1,1.54.52,2,2,0,0,1,.53,1.51v3.79Z"/><path class="cls-4" d="M240,159.35V151h.22v8.31Z"/><path class="cls-4" d="M255.61,159.35l3.64-7.83h.22l3.64,7.83h-.25l-3.55-7.66h.11l-3.55,7.66Zm1.2-2.36.11-.21h4.87l.11.21Z"/><path class="cls-4" d="M272.22,159.39a2.74,2.74,0,0,1-2.45-1.42,3.13,3.13,0,0,1-.36-1.52,3.07,3.07,0,0,1,.36-1.51,2.77,2.77,0,0,1,1-1,2.82,2.82,0,0,1,1.44-.38,2.72,2.72,0,0,1,1.42.38,2.65,2.65,0,0,1,1,1,3.07,3.07,0,0,1,.36,1.51,3.13,3.13,0,0,1-.36,1.52,2.68,2.68,0,0,1-1,1A2.72,2.72,0,0,1,272.22,159.39Zm0-.22a2.55,2.55,0,0,0,1.32-.34,2.63,2.63,0,0,0,.93-1,3.18,3.18,0,0,0,0-2.82,2.52,2.52,0,0,0-.93-1,2.75,2.75,0,0,0-2.65,0,2.57,2.57,0,0,0-.92,1,3.09,3.09,0,0,0,0,2.82,2.68,2.68,0,0,0,.92,1A2.56,2.56,0,0,0,272.22,159.17Zm2.58.18v-2.12l.11-.79-.11-.78V151H275v8.31Z"/><path class="cls-4" d="M284.63,159.35,282,153.56h.25l2.57,5.64h-.09l2.56-5.64h.26l-2.66,5.79Z"/><path class="cls-4" d="M296,159.39a2.68,2.68,0,0,1-1.11-.21,1.53,1.53,0,0,1-.7-.57,1.51,1.51,0,0,1-.24-.85,1.54,1.54,0,0,1,.2-.76,1.4,1.4,0,0,1,.64-.58,2.94,2.94,0,0,1,1.22-.21h2.32v.21H296a2.08,2.08,0,0,0-1.4.37,1.23,1.23,0,0,0-.42,1,1.28,1.28,0,0,0,.48,1,2.14,2.14,0,0,0,1.34.38,2.37,2.37,0,0,0,1.38-.38,2.43,2.43,0,0,0,.83-1.09l.11.14a2.25,2.25,0,0,1-.82,1.12A2.53,2.53,0,0,1,296,159.39Zm2.21,0v-3.78a1.85,1.85,0,0,0-.47-1.37,1.92,1.92,0,0,0-1.37-.46,3.08,3.08,0,0,0-1.19.23,2.9,2.9,0,0,0-.91.58l-.16-.16a3,3,0,0,1,1-.62,3.26,3.26,0,0,1,1.24-.24,2.11,2.11,0,0,1,1.54.52,2,2,0,0,1,.53,1.51v3.79Z"/><path class="cls-4" d="M306.47,159.35v-5.79h.23v1.65l0,0a2.35,2.35,0,0,1,.88-1.21,2.69,2.69,0,0,1,1.57-.44,2.6,2.6,0,0,1,1.23.27,2,2,0,0,1,.8.82,2.77,2.77,0,0,1,.29,1.32v3.41h-.23v-3.41a2.24,2.24,0,0,0-.55-1.64,2,2,0,0,0-1.53-.56,2.67,2.67,0,0,0-1.31.31,2,2,0,0,0-.84.86,2.8,2.8,0,0,0-.29,1.3v3.14Z"/><path class="cls-4" d="M318.51,153.78v-.22h3.3v.22Zm2.52,5.61a1.31,1.31,0,0,1-1-.4,1.45,1.45,0,0,1-.36-1V152.3h.22v5.61a1.3,1.3,0,0,0,.31.94,1.12,1.12,0,0,0,.88.32,1.37,1.37,0,0,0,1-.35l.16.15a1.2,1.2,0,0,1-.51.32A2.17,2.17,0,0,1,321,159.39Z"/><path class="cls-4" d="M331,159.39a2.68,2.68,0,0,1-1.11-.21,1.53,1.53,0,0,1-.7-.57,1.51,1.51,0,0,1-.24-.85,1.54,1.54,0,0,1,.2-.76,1.4,1.4,0,0,1,.64-.58,2.94,2.94,0,0,1,1.22-.21h2.32v.21H331a2.08,2.08,0,0,0-1.4.37,1.23,1.23,0,0,0-.42,1,1.28,1.28,0,0,0,.48,1,2.14,2.14,0,0,0,1.34.38,2.37,2.37,0,0,0,1.38-.38,2.43,2.43,0,0,0,.83-1.09l.11.14a2.25,2.25,0,0,1-.82,1.12A2.53,2.53,0,0,1,331,159.39Zm2.21,0v-3.78a1.85,1.85,0,0,0-.47-1.37,1.92,1.92,0,0,0-1.37-.46,3.11,3.11,0,0,0-2.11.81l-.15-.16a3,3,0,0,1,1-.62,3.26,3.26,0,0,1,1.24-.24,2.11,2.11,0,0,1,1.54.52,2,2,0,0,1,.53,1.51v3.79Z"/><path class="cls-4" d="M343.65,159.16a2.89,2.89,0,0,1-1.45-.36,2.72,2.72,0,0,1-1-1,3,3,0,0,1,0-2.92,2.69,2.69,0,0,1,1-1,3.1,3.1,0,0,1,2.9,0,2.61,2.61,0,0,1,1,1,3.07,3.07,0,0,1,0,2.92,2.64,2.64,0,0,1-1,1A2.91,2.91,0,0,1,343.65,159.16Zm0-.21a2.69,2.69,0,0,0,1.34-.33,2.35,2.35,0,0,0,.93-.92,2.67,2.67,0,0,0,.34-1.36,2.58,2.58,0,0,0-.34-1.35,2.35,2.35,0,0,0-.93-.92,2.69,2.69,0,0,0-1.34-.33,2.75,2.75,0,0,0-1.35.33,2.49,2.49,0,0,0-.93.92,2.58,2.58,0,0,0-.34,1.35,2.67,2.67,0,0,0,.34,1.36,2.49,2.49,0,0,0,.93.92A2.75,2.75,0,0,0,343.65,159Zm.16,2.61a4.11,4.11,0,0,1-1.46-.26,2.89,2.89,0,0,1-1.1-.7l.16-.16a3,3,0,0,0,1.06.67,3.67,3.67,0,0,0,1.34.24,2.14,2.14,0,0,0,2.45-2.48V157l.12-.67-.12-.67v-2.11h.23v5.28a2.78,2.78,0,0,1-.67,2.06A2.73,2.73,0,0,1,343.81,161.56Z"/><path class="cls-4" d="M356.86,159.39a2.92,2.92,0,0,1-1.49-.38,2.71,2.71,0,0,1-1-1,3,3,0,0,1-.37-1.52,3.17,3.17,0,0,1,.34-1.51,2.65,2.65,0,0,1,1-1,2.59,2.59,0,0,1,1.37-.38,2.62,2.62,0,0,1,1.37.36,2.65,2.65,0,0,1,1,1,3.12,3.12,0,0,1,.35,1.49v0h-5.24v-.21h5.12l-.09.17a2.83,2.83,0,0,0-.33-1.37,2.44,2.44,0,0,0-.88-.95,2.46,2.46,0,0,0-2.53,0,2.44,2.44,0,0,0-.88.95,2.94,2.94,0,0,0-.32,1.37v0a2.83,2.83,0,0,0,.35,1.41,2.6,2.6,0,0,0,1,1,2.72,2.72,0,0,0,1.38.34A2.77,2.77,0,0,0,358,159a2.13,2.13,0,0,0,.87-.67l.15.15a2.31,2.31,0,0,1-.94.72A3,3,0,0,1,356.86,159.39Z"/></g></g></svg>
