<svg xmlns="http://www.w3.org/2000/svg" viewBox="0 0 432.54 254.51"><defs><style>.cls-1{fill:#184275;}.cls-1,.cls-2{fill-rule:evenodd;}.cls-2{fill:#3f96d2;}.cls-3{font-size:86.82px;font-family:AllRoundGothic-Demi, AllRoundGothic Demi;font-weight:300;}.cls-3,.cls-5{fill:#231f20;}.cls-4{font-family:AllRoundGothic-XLig, AllRoundGothic XLig;font-weight:400;}</style></defs><g id="Layer_2" data-name="Layer 2"><g id="Layer_1-2" data-name="Layer 1"><path class="cls-1" d="M372.87,74.36a8.52,8.52,0,0,1-2.58,4.4c-6.91,6.37-24.84.7-32.6-2-1.17-.4-1.45-.48-2.32-.06A3.74,3.74,0,0,1,330,73.9c-2.57-1-5.17-3-7.55-2.52-4.18.83-8.31,1.25-12.61,1.75l-12.73,1.42c-2.95.3-4.58-.21-6.05,1.51-1.32,1.56-8.3,9.9-8.66,10.87,4.41,4.17,8.78,7.67,13.57,11.59,2.3,1.88,12.74,10.18,14.69,11.16,2-2.48,6.05-1.11,7.68,1,1.77,2.31-1.44,5.64-2.77,7.69-1.67,2.59-3.16,5.68-6.65,3.52-2.42-1.48.27-5.7.39-8.25-5.36-3.63-11.48-6.34-16.89-10.07a89.29,89.29,0,0,0-8.14-5.07c-1.77-.89-6.63-4.66-8.05-4.69-1.74.9-2.82,4-5.21,3.51a57.51,57.51,0,0,1-7.62-2.52A37.31,37.31,0,0,1,258,92.22c-3.48-2.18-2.86-.53-3-6.89-1.33-.9-7.29-1.92-9.27-2.28-3.84-.68-26.68-6.37-27.56-6.33-1.4,1.67-2.66,6.84-5.61,6-1.89-.52-2.82-1.39-2.67-3.07.12-1.4.51-2.91.7-4.27.35-2.55.42-6.84,3.46-7.2a7.05,7.05,0,0,1,4.48,1.32c1.65,1.08,1.32,1.78,1.71,3.24,1.31.66,31.91,4.25,35.3,3.34.43-1.73.35-4.59.6-6.58s.37-4.25.6-6.37c.37-3.46,0-2.74-2.18-5.22-5.15-6-10.06-12.14-14.82-18.44-3.15-4.2-2.81-3.87-8.09-5.61-1.94-.64-1.47.3-2.88.4a5.51,5.51,0,0,1-3.36-1.38c-.82-.84-.35-1.68-1.51-2.41-1.46-.92-4.55-2.17-6.6-3.37-5.61-3.28-11.7-6.91-15.25-12.12-1.76-2.57-3.95-7.62-.16-11.56C206.2-1,213.55-.1,219.24.55c9.06,1,27.21,7.87,34.68,12.74,6.51,4.24,15.58,9.63,17.59,17.3a8.52,8.52,0,0,1-6,10,18,18,0,0,1-6.1.08c-1.27-.12-5.43-.33-6-1.48.55-.69.39-.58,1.33-.61,3.59-.1,8,1.25,10.16-2.84s-2.45-8-5.74-10.55c-8.61-6.59-37.06-19.25-49.64-17.75-2.24.27-4.1.85-4.91,3.27-1.23,3.71,3.87,7.58,7.11,10,2.64,1.94,9.91,6.27,13.27,7.22,1.64-3.32.29-11.27,5.14-11.77a7.59,7.59,0,0,1,6.16,2.48c1.63,2,0,3.83-.86,6.51,1.9,1.55,3.9,3.64,5.84,5.46L252.4,41.72c1.09,1.09,4.77,5.13,5.77,5.42.79-1.61.68-1.62,2-2.51,2.94-2,4.8-1.7,8.41-.49A225.9,225.9,0,0,1,295.7,55.2c2.46,1.21,3.64,1.59,4.66,3.79,1.25,2.72,1,3,.18,5.66l32.08-.36c.74-1.4,1-3.62,2.26-4.5,3.11-2.25,10.19,2.05,8.22,5.83-4.48,8.62-7.85,7.51-1.29,9.8,6.26,2.18,16.25,4.82,21.64,3,3.1-1.06,3.72-4.16,2.19-6.55s-3-3.71-5.73-5.7c-8.29-6.06-25.69-13.45-35.94-16-5.45-1.37-12.72-3-16.48-.62-3,1.89-2.68,5.22-1.37,7.23,2.09,3.19,5.32,4.26,5,5.92-1.19.43-3-1.38-4.12-2.16a33.05,33.05,0,0,1-3.62-3c-2.24-2.17-3.49-4.48-2.87-7.79.87-4.6,3-5.71,5.93-6.89,7.52-3,21.19.67,28.26,2.62,9.33,2.57,41,16.14,38.14,28.91"/><path class="cls-1" d="M242.6,73.07c-2.2-.5-6.48-3.18-8.65-4.28-5.65-2.86-2.48-1.51-8.76-4-2.57-1-35.6-13.82-29.51-2.73,3.2,5.84,13.29,8.09,12.14,10.17-1.46.39-13.82-5.47-16-12.15-2.57-7.88,9.31-7.53,14.56-6.62,12.73,2.19,21.15,4.89,32.3,11.73,2.62,1.62,5.41,4.69,3.92,7.9"/><path class="cls-1" d="M341.18,120.91a17,17,0,0,1-9.33.92c-2.08-.28-9.4-2-10.55-3.56,1.87-1.82,9.77,3.26,16,1.23,11.78-3.86-22.37-18.25-23.34-18.7-5.65-2.6-14.41-4.23-18.16-6,1.23-3.49,5.35-3.65,8.6-2.9a80.1,80.1,0,0,1,11.12,3.22,93.73,93.73,0,0,1,20.15,11,29.84,29.84,0,0,1,7,6.79c1.64,2.58,2.59,6.11-1.48,8"/><path class="cls-2" d="M266.85,102.79c-14.5,13.14-88.42,71.06-207.35,10.9C121.77,141.57,201,142.14,253.31,97.25a8.69,8.69,0,0,1,.86.51,36.62,36.62,0,0,0,5.44,2.6,56.49,56.49,0,0,0,7.24,2.43"/><text class="cls-3" transform="translate(0 221.53)">Sudd <tspan class="cls-4" x="206.98" y="0">Drone</tspan></text><path class="cls-5" d="M48.4,251.82l4.44-9.58h.28l4.44,9.58h-.31l-4.34-9.36h.14l-4.34,9.36Zm1.46-2.89.14-.26h6l.13.26Z"/><path class="cls-5" d="M64.82,245v-.26h4V245Zm1.37,6.81v-8.45a1.81,1.81,0,0,1,.44-1.26,1.65,1.65,0,0,1,1.27-.48,2.51,2.51,0,0,1,.76.12,1.45,1.45,0,0,1,.62.38l-.19.2a1.32,1.32,0,0,0-.53-.33,1.74,1.74,0,0,0-.65-.11,1.4,1.4,0,0,0-1.08.4,1.63,1.63,0,0,0-.37,1.14v8.39Z"/><path class="cls-5" d="M77.16,251.82v-7.07h.27v1.95l0,0a2.72,2.72,0,0,1,1-1.44,3,3,0,0,1,1.8-.51V245h-.08a2.52,2.52,0,0,0-2,.81,3.31,3.31,0,0,0-.71,2.23v3.8Z"/><path class="cls-5" d="M89.36,242.79a.36.36,0,0,1-.25-.11.34.34,0,0,1-.11-.24.36.36,0,0,1,.11-.26.35.35,0,0,1,.25-.1.33.33,0,0,1,.25.1.35.35,0,0,1,.1.26.33.33,0,0,1-.1.24A.34.34,0,0,1,89.36,242.79Zm-.14,9v-7.07h.27v7.07Z"/><path class="cls-5" d="M102.1,251.86a3.42,3.42,0,0,1-1.78-.46,3.29,3.29,0,0,1-1.24-1.27,4,4,0,0,1,0-3.71,3.2,3.2,0,0,1,1.24-1.26,3.51,3.51,0,0,1,1.78-.45,3.58,3.58,0,0,1,1.43.28,2.86,2.86,0,0,1,1.12.86l-.19.21a2.58,2.58,0,0,0-1-.83,3.25,3.25,0,0,0-1.33-.26,3.22,3.22,0,0,0-1.64.41,3.1,3.1,0,0,0-1.14,1.16,3.5,3.5,0,0,0-.42,1.74,3.42,3.42,0,0,0,.42,1.72,3.05,3.05,0,0,0,1.14,1.17,3.14,3.14,0,0,0,1.64.43,3.26,3.26,0,0,0,1.33-.27,2.67,2.67,0,0,0,1-.83l.19.21a2.86,2.86,0,0,1-1.12.86A3.58,3.58,0,0,1,102.1,251.86Z"/><path class="cls-5" d="M115.56,251.86a3.22,3.22,0,0,1-1.35-.25,1.87,1.87,0,0,1-.86-.69,1.94,1.94,0,0,1-.29-1,1.91,1.91,0,0,1,.24-.94,1.74,1.74,0,0,1,.78-.7,3.45,3.45,0,0,1,1.49-.27h2.84v.26h-2.85a2.62,2.62,0,0,0-1.72.46,1.52,1.52,0,0,0-.51,1.17,1.56,1.56,0,0,0,.59,1.27,2.58,2.58,0,0,0,1.64.47,2.65,2.65,0,0,0,2.69-1.81l.14.18a2.7,2.7,0,0,1-1,1.37A3,3,0,0,1,115.56,251.86Zm2.69,0V247.2a2.24,2.24,0,0,0-.57-1.67A2.27,2.27,0,0,0,116,245a3.78,3.78,0,0,0-1.45.27,3.63,3.63,0,0,0-1.12.71l-.19-.19a3.84,3.84,0,0,1,1.23-.77,4.1,4.1,0,0,1,1.52-.28,2.59,2.59,0,0,1,1.88.63,2.44,2.44,0,0,1,.65,1.84v4.64Z"/><path class="cls-5" d="M130,251.86a4.73,4.73,0,0,1-1.61-.27,3,3,0,0,1-1.15-.7l.17-.22a3.32,3.32,0,0,0,1.06.65,4.17,4.17,0,0,0,1.53.28,3,3,0,0,0,1.81-.44,1.4,1.4,0,0,0,.55-1.13,1.17,1.17,0,0,0-.26-.8,1.78,1.78,0,0,0-.69-.46,7.43,7.43,0,0,0-1-.25l-1-.2a5.15,5.15,0,0,1-1-.31,1.87,1.87,0,0,1-.69-.55,1.54,1.54,0,0,1-.26-.94,1.64,1.64,0,0,1,.26-.88,1.85,1.85,0,0,1,.82-.67,3.27,3.27,0,0,1,1.43-.26,4.5,4.5,0,0,1,1.3.19,3.17,3.17,0,0,1,1,.53l-.17.22a2.7,2.7,0,0,0-1-.51,3.85,3.85,0,0,0-1.17-.17,2.57,2.57,0,0,0-1.69.45,1.41,1.41,0,0,0-.53,1.1,1.25,1.25,0,0,0,.26.83,1.57,1.57,0,0,0,.69.47,5.27,5.27,0,0,0,1,.26l1,.21a4.5,4.5,0,0,1,.94.3,1.68,1.68,0,0,1,.69.53,1.45,1.45,0,0,1,.26.91,1.66,1.66,0,0,1-.29.95,1.92,1.92,0,0,1-.87.65A4,4,0,0,1,130,251.86Z"/><path class="cls-5" d="M150.37,251.82l4.44-9.58h.27l4.45,9.58h-.32l-4.33-9.36H155l-4.34,9.36Zm1.46-2.89.14-.26h5.95l.13.26Z"/><path class="cls-5" d="M170.74,251.86a3.48,3.48,0,0,1-1.81-.46,3.41,3.41,0,0,1-1.26-1.27,3.76,3.76,0,0,1-.46-1.85,4,4,0,0,1,.43-1.86,3.23,3.23,0,0,1,1.17-1.26,3.37,3.37,0,0,1,3.35,0,3.2,3.2,0,0,1,1.18,1.24,3.82,3.82,0,0,1,.43,1.82v.07h-6.4V248h6.25l-.11.2a3.41,3.41,0,0,0-.4-1.67,3,3,0,0,0-1.07-1.16,2.92,2.92,0,0,0-1.56-.42,2.87,2.87,0,0,0-2.61,1.58,3.52,3.52,0,0,0-.39,1.67v.06a3.48,3.48,0,0,0,.42,1.72,3,3,0,0,0,1.16,1.17,3.26,3.26,0,0,0,1.68.43,3.39,3.39,0,0,0,1.35-.27,2.62,2.62,0,0,0,1.06-.83l.19.2a2.89,2.89,0,0,1-1.15.86A3.55,3.55,0,0,1,170.74,251.86Z"/><path class="cls-5" d="M182.9,251.82v-7.07h.28v1.95l0,0a2.65,2.65,0,0,1,1-1.44,3,3,0,0,1,1.8-.51V245h-.08a2.48,2.48,0,0,0-2,.81,3.26,3.26,0,0,0-.71,2.23v3.8Z"/><path class="cls-5" d="M195.1,242.79a.38.38,0,0,1-.25-.11.33.33,0,0,1-.1-.24.35.35,0,0,1,.1-.26.36.36,0,0,1,.25-.1.32.32,0,0,1,.25.1.36.36,0,0,1,.11.26.34.34,0,0,1-.11.24A.33.33,0,0,1,195.1,242.79Zm-.14,9v-7.07h.28v7.07Z"/><path class="cls-5" d="M207,251.86a3.3,3.3,0,0,1-1.36-.25,1.84,1.84,0,0,1-.85-.69,1.86,1.86,0,0,1-.3-1,1.91,1.91,0,0,1,.24-.94,1.71,1.71,0,0,1,.79-.7A3.39,3.39,0,0,1,207,248h2.83v.26H207a2.59,2.59,0,0,0-1.72.46,1.52,1.52,0,0,0-.51,1.17,1.55,1.55,0,0,0,.58,1.27,2.61,2.61,0,0,0,1.65.47,2.85,2.85,0,0,0,1.68-.47,2.88,2.88,0,0,0,1-1.34l.14.18a2.72,2.72,0,0,1-1,1.37A3,3,0,0,1,207,251.86Zm2.69,0V247.2a2.24,2.24,0,0,0-.57-1.67,2.28,2.28,0,0,0-1.67-.56,3.78,3.78,0,0,0-1.45.27,3.63,3.63,0,0,0-1.12.71l-.2-.19A3.78,3.78,0,0,1,206,245a4.09,4.09,0,0,1,1.51-.28,2.57,2.57,0,0,1,1.88.63,2.4,2.4,0,0,1,.65,1.84v4.64Z"/><path class="cls-5" d="M219.88,251.82V241.67h.28v10.15Z"/><path class="cls-5" d="M238.92,251.82l4.44-9.58h.28l4.44,9.58h-.31l-4.34-9.36h.14l-4.34,9.36Zm1.46-2.89.14-.26h5.95l.14.26Z"/><path class="cls-5" d="M259.2,251.86a3.33,3.33,0,0,1-3-1.73,4,4,0,0,1,0-3.71,3.38,3.38,0,0,1,1.23-1.26,3.43,3.43,0,0,1,1.75-.45,3.37,3.37,0,0,1,1.74.45,3.4,3.4,0,0,1,1.21,1.26,4.13,4.13,0,0,1,0,3.71,3.36,3.36,0,0,1-1.21,1.27A3.28,3.28,0,0,1,259.2,251.86Zm0-.26a3.07,3.07,0,0,0,1.62-.43A3,3,0,0,0,262,250a3.85,3.85,0,0,0,0-3.46,3,3,0,0,0-1.13-1.16,3.15,3.15,0,0,0-1.62-.41,3,3,0,0,0-2.74,1.57,3.77,3.77,0,0,0,0,3.46,3.08,3.08,0,0,0,2.74,1.6Zm3.16.22v-2.6l.14-1-.14-1v-5.63h.27v10.15Z"/><path class="cls-5" d="M274.37,251.82l-3.26-7.07h.32l3.13,6.88h-.11l3.13-6.88h.32l-3.26,7.07Z"/><path class="cls-5" d="M288.19,251.86a3.25,3.25,0,0,1-1.35-.25,1.84,1.84,0,0,1-.85-.69,1.86,1.86,0,0,1-.3-1,1.91,1.91,0,0,1,.24-.94,1.71,1.71,0,0,1,.79-.7,3.39,3.39,0,0,1,1.49-.27H291v.26h-2.85a2.57,2.57,0,0,0-1.71.46,1.52,1.52,0,0,0-.52,1.17,1.56,1.56,0,0,0,.59,1.27,2.6,2.6,0,0,0,1.64.47,2.67,2.67,0,0,0,2.7-1.81l.14.18a2.78,2.78,0,0,1-1,1.37A3,3,0,0,1,288.19,251.86Zm2.7,0V247.2a2.2,2.2,0,0,0-.58-1.67,2.25,2.25,0,0,0-1.67-.56,3.73,3.73,0,0,0-1.44.27,3.69,3.69,0,0,0-1.13.71l-.19-.19a3.84,3.84,0,0,1,1.23-.77,4.14,4.14,0,0,1,1.52-.28,2.59,2.59,0,0,1,1.88.63,2.4,2.4,0,0,1,.65,1.84v4.64Z"/><path class="cls-5" d="M301.05,251.82v-7.07h.27v2l0,0a2.89,2.89,0,0,1,1.09-1.47,3.24,3.24,0,0,1,1.91-.54,3.16,3.16,0,0,1,1.5.33,2.29,2.29,0,0,1,1,1,3.35,3.35,0,0,1,.35,1.62v4.17h-.27v-4.17a2.78,2.78,0,0,0-.67-2,2.49,2.49,0,0,0-1.88-.68,3.23,3.23,0,0,0-1.6.37,2.58,2.58,0,0,0-1,1,3.35,3.35,0,0,0-.36,1.58v3.85Z"/><path class="cls-5" d="M315.75,245v-.26h4V245Zm3.08,6.85a1.62,1.62,0,0,1-1.27-.48,1.76,1.76,0,0,1-.44-1.26V243.2h.27v6.85a1.65,1.65,0,0,0,.37,1.15,1.4,1.4,0,0,0,1.08.4,1.66,1.66,0,0,0,1.18-.44l.19.19a1.53,1.53,0,0,1-.62.39A2.51,2.51,0,0,1,318.83,251.86Z"/><path class="cls-5" d="M331,251.86a3.22,3.22,0,0,1-1.35-.25,1.78,1.78,0,0,1-1.15-1.73,1.91,1.91,0,0,1,.24-.94,1.74,1.74,0,0,1,.78-.7A3.42,3.42,0,0,1,331,248h2.83v.26H331a2.6,2.6,0,0,0-1.72.46,1.52,1.52,0,0,0-.51,1.17,1.56,1.56,0,0,0,.59,1.27,2.58,2.58,0,0,0,1.64.47,2.65,2.65,0,0,0,2.69-1.81l.14.18a2.76,2.76,0,0,1-1,1.37A3,3,0,0,1,331,251.86Zm2.69,0V247.2a2.24,2.24,0,0,0-.57-1.67,2.27,2.27,0,0,0-1.67-.56,3.78,3.78,0,0,0-1.45.27,3.63,3.63,0,0,0-1.12.71l-.19-.19a3.73,3.73,0,0,1,1.23-.77,4.1,4.1,0,0,1,1.52-.28,2.61,2.61,0,0,1,1.88.63,2.44,2.44,0,0,1,.65,1.84v4.64Z"/><path class="cls-5" d="M346.45,251.59a3.53,3.53,0,0,1-1.77-.45,3.3,3.3,0,0,1-1.24-1.22,3.69,3.69,0,0,1,0-3.57,3.35,3.35,0,0,1,1.24-1.21,3.62,3.62,0,0,1,1.77-.43,3.52,3.52,0,0,1,1.77.43,3.22,3.22,0,0,1,1.22,1.21,3.77,3.77,0,0,1,0,3.57,3.18,3.18,0,0,1-1.22,1.22A3.43,3.43,0,0,1,346.45,251.59Zm0-.26a3.31,3.31,0,0,0,1.65-.41,3,3,0,0,0,1.14-1.13,3.55,3.55,0,0,0,0-3.31,3,3,0,0,0-1.14-1.11,3.58,3.58,0,0,0-3.29,0,3,3,0,0,0-1.14,1.11,3.47,3.47,0,0,0,0,3.31,3,3,0,0,0,1.14,1.13A3.33,3.33,0,0,0,346.45,251.33Zm.21,3.18a5,5,0,0,1-1.79-.31,3.41,3.41,0,0,1-1.34-.86l.19-.2a3.64,3.64,0,0,0,1.3.82,4.39,4.39,0,0,0,1.64.29,2.6,2.6,0,0,0,3-3V249l.14-.82-.14-.82v-2.57h.28v6.44a2.88,2.88,0,0,1-3.27,3.32Z"/><path class="cls-5" d="M362.59,251.86a3.54,3.54,0,0,1-1.82-.46,3.39,3.39,0,0,1-1.25-1.27,3.76,3.76,0,0,1-.46-1.85,4,4,0,0,1,.43-1.86,3.23,3.23,0,0,1,1.17-1.26,3.14,3.14,0,0,1,1.67-.45,3.12,3.12,0,0,1,2.85,1.68,3.71,3.71,0,0,1,.43,1.82v.07h-6.4V248h6.25l-.11.2a3.52,3.52,0,0,0-.39-1.67,3,3,0,0,0-1.08-1.16,3.05,3.05,0,0,0-3.09,0,3,3,0,0,0-1.08,1.16,3.52,3.52,0,0,0-.39,1.67v.06a3.38,3.38,0,0,0,.43,1.72,3,3,0,0,0,1.16,1.17,3.23,3.23,0,0,0,1.68.43,3.43,3.43,0,0,0,1.35-.27,2.69,2.69,0,0,0,1.06-.83l.19.2a2.89,2.89,0,0,1-1.15.86A3.55,3.55,0,0,1,362.59,251.86Z"/></g></g></svg>