<svg xmlns="http://www.w3.org/2000/svg" viewBox="0 0 896.2 199.18"><defs><style>.cls-1{fill:#231f20;}</style></defs><g id="Layer_2" data-name="Layer 2"><g id="Layer_1-2" data-name="Layer 1"><path class="cls-1" d="M4,110.38a56.3,56.3,0,0,0,28.51,8c16.26,0,25.77-8.58,25.77-21,0-11.52-6.58-18.09-23.21-24.49C15,65.79,2.56,55.38,2.56,38c0-19.19,15.9-33.44,39.84-33.44,12.61,0,21.75,2.92,27.23,6l-4.39,13a49,49,0,0,0-23.39-5.85C25,17.73,18.64,27.78,18.64,36.19c0,11.51,7.49,17.17,24.49,23.75C64,68,74.56,78,74.56,96.13c0,19-14.07,35.45-43.13,35.45-11.88,0-24.85-3.47-31.43-7.86Z"/><path class="cls-1" d="M169.78,105.63c0,9.14.18,17.18.73,24.13H156.25l-.91-14.44H155a33.27,33.27,0,0,1-29.24,16.45c-13.89,0-30.52-7.68-30.52-38.75V41.3h16.08v49c0,16.81,5.12,28.14,19.74,28.14,10.79,0,18.28-7.49,21.2-14.62a23.35,23.35,0,0,0,1.46-8.22V41.3h16.09Z"/><path class="cls-1" d="M272.85,0V106.91c0,7.86.18,16.81.73,22.85H259.14l-.73-15.36H258c-4.93,9.87-15.71,17.37-30.15,17.37-21.38,0-37.83-18.1-37.83-45-.18-29.43,18.09-47.52,39.66-47.52,13.52,0,22.66,6.4,26.68,13.53h.37V0ZM256.77,77.31a28.32,28.32,0,0,0-.74-6.77A23.64,23.64,0,0,0,232.82,51.9c-16.63,0-26.49,14.62-26.49,34.18,0,17.91,8.77,32.71,26.13,32.71,10.78,0,20.65-7.13,23.57-19.19a27.83,27.83,0,0,0,.74-6.94Z"/><path class="cls-1" d="M375.92,0V106.91c0,7.86.18,16.81.73,22.85H362.21l-.73-15.36h-.36c-4.94,9.87-15.72,17.37-30.16,17.37-21.38,0-37.83-18.1-37.83-45-.18-29.43,18.09-47.52,39.66-47.52,13.52,0,22.66,6.4,26.68,13.53h.37V0ZM359.84,77.31a28.32,28.32,0,0,0-.74-6.77A23.64,23.64,0,0,0,335.89,51.9c-16.63,0-26.49,14.62-26.49,34.18,0,17.91,8.77,32.71,26.13,32.71,10.78,0,20.65-7.13,23.57-19.19a27.83,27.83,0,0,0,.74-6.94Z"/><path class="cls-1" d="M441.89,8.22A228,228,0,0,1,475.7,5.67c22.84,0,39.11,5.3,49.89,15.35,11,10.05,17.36,24.3,17.36,44.22,0,20.11-6.21,36.55-17.73,47.88-11.51,11.52-30.52,17.73-54.46,17.73a257.48,257.48,0,0,1-28.87-1.46Zm15.9,108.93a100.57,100.57,0,0,0,16.08.91c34,0,52.45-19,52.45-52.27.18-29.06-16.27-47.51-49.89-47.51a90.59,90.59,0,0,0-18.64,1.64Z"/><path class="cls-1" d="M563.05,68.9c0-10.42-.18-19.37-.73-27.6h14.07l.55,17.36h.73c4-11.87,13.71-19.37,24.49-19.37a17.61,17.61,0,0,1,4.57.55V55a23.92,23.92,0,0,0-5.48-.55c-11.34,0-19.38,8.59-21.57,20.65a44.86,44.86,0,0,0-.73,7.5v47.15h-15.9Z"/><path class="cls-1" d="M702.85,84.8c0,32.71-22.66,47-44,47-23.94,0-42.4-17.55-42.4-45.51,0-29.61,19.37-47,43.86-47C685.68,39.29,702.85,57.75,702.85,84.8Zm-70.17.91c0,19.37,11.14,34,26.86,34,15.35,0,26.87-14.43,26.87-34.35,0-15-7.5-34-26.5-34S632.68,68.9,632.68,85.71Z"/><path class="cls-1" d="M723.14,65.24c0-9.13-.18-16.63-.73-23.94h14.25l.92,14.62h.36c4.39-8.4,14.62-16.63,29.24-16.63,12.25,0,31.25,7.31,31.25,37.65v52.82H782.35v-51c0-14.26-5.3-26.14-20.47-26.14-10.6,0-18.82,7.5-21.56,16.45a23.13,23.13,0,0,0-1.1,7.49v53.19H723.14Z"/><path class="cls-1" d="M833.52,88.45c.36,21.75,14.25,30.71,30.34,30.71,11.51,0,18.45-2,24.48-4.57l2.74,11.51c-5.66,2.56-15.35,5.48-29.42,5.48-27.23,0-43.49-17.91-43.49-44.59s15.71-47.7,41.48-47.7c28.88,0,36.55,25.41,36.55,41.67a59,59,0,0,1-.55,7.49Zm47.15-11.51c.18-10.23-4.21-26.13-22.3-26.13-16.26,0-23.39,15-24.67,26.13Z"/><path class="cls-1" d="M94.2,193.51l9.35-20.15h.58l9.35,20.15h-.66l-9.12-19.69H104l-9.12,19.69Zm3.08-6.07.28-.55h12.53l.29.55Z"/><path class="cls-1" d="M128.77,179.18v-.55h8.49v.55Zm2.88,14.33V175.72a3.73,3.73,0,0,1,.93-2.64,3.44,3.44,0,0,1,2.67-1,4.86,4.86,0,0,1,1.59.26,3.05,3.05,0,0,1,1.31.8l-.4.41a3,3,0,0,0-1.11-.7,4.13,4.13,0,0,0-1.36-.23,3,3,0,0,0-2.28.84,3.42,3.42,0,0,0-.78,2.42v17.64Z"/><path class="cls-1" d="M154.73,193.51V178.63h.58v4.12l-.06-.09a5.71,5.71,0,0,1,2.12-3,6.35,6.35,0,0,1,3.78-1.08v.58H161a5.24,5.24,0,0,0-4.17,1.71,6.87,6.87,0,0,0-1.5,4.68v8Z"/><path class="cls-1" d="M180.41,174.51a.79.79,0,0,1-.75-.74.73.73,0,0,1,.23-.54.77.77,0,0,1,.52-.21.72.72,0,0,1,.53.21.72.72,0,0,1,.22.54.7.7,0,0,1-.22.51A.67.67,0,0,1,180.41,174.51Zm-.29,19V178.63h.58v14.88Z"/><path class="cls-1" d="M207.24,193.6a7.38,7.38,0,0,1-3.76-1,7,7,0,0,1-2.6-2.67,8.54,8.54,0,0,1,0-7.83,6.9,6.9,0,0,1,2.6-2.65,7.83,7.83,0,0,1,6.77-.34A6,6,0,0,1,212.6,181l-.41.43a5.23,5.23,0,0,0-2.16-1.74,7,7,0,0,0-2.79-.56,6.73,6.73,0,0,0-3.45.88,6.31,6.31,0,0,0-2.41,2.45,8,8,0,0,0,0,7.28,6.4,6.4,0,0,0,2.41,2.46,6.64,6.64,0,0,0,3.45.89,6.83,6.83,0,0,0,2.79-.57,5.36,5.36,0,0,0,2.16-1.73l.41.43a6.06,6.06,0,0,1-2.35,1.82A7.52,7.52,0,0,1,207.24,193.6Z"/><path class="cls-1" d="M235.57,193.6a7,7,0,0,1-2.85-.52,3.83,3.83,0,0,1-2.42-3.65,4.1,4.1,0,0,1,.5-2,3.64,3.64,0,0,1,1.66-1.46,7.16,7.16,0,0,1,3.14-.57h6V186h-6a5.33,5.33,0,0,0-3.61,1,3.14,3.14,0,0,0-1.08,2.46,3.24,3.24,0,0,0,1.23,2.66,5.42,5.42,0,0,0,3.46,1,6,6,0,0,0,3.55-1,6.1,6.1,0,0,0,2.12-2.81l.29.38a5.78,5.78,0,0,1-2.12,2.88A6.39,6.39,0,0,1,235.57,193.6Zm5.67-.09v-9.73a4.69,4.69,0,0,0-1.21-3.51,4.87,4.87,0,0,0-3.51-1.18,7.71,7.71,0,0,0-3.05.58,7.61,7.61,0,0,0-2.36,1.49l-.41-.4a8.06,8.06,0,0,1,2.59-1.61,8.71,8.71,0,0,1,3.2-.61,5.48,5.48,0,0,1,4,1.33,5.16,5.16,0,0,1,1.36,3.88v9.76Z"/><path class="cls-1" d="M266.05,193.6a9.66,9.66,0,0,1-3.39-.58,6,6,0,0,1-2.42-1.46l.34-.46a7.21,7.21,0,0,0,2.25,1.36,8.29,8.29,0,0,0,3.22.59,6.09,6.09,0,0,0,3.8-.92,2.91,2.91,0,0,0,1.15-2.39,2.46,2.46,0,0,0-.54-1.68,3.53,3.53,0,0,0-1.46-.95,11.87,11.87,0,0,0-2-.53c-.73-.14-1.46-.28-2.19-.44a9.19,9.19,0,0,1-2-.64,3.72,3.72,0,0,1-1.45-1.16,3.22,3.22,0,0,1-.55-2,3.49,3.49,0,0,1,.55-1.87,4,4,0,0,1,1.71-1.41,7.2,7.2,0,0,1,3-.55,9.26,9.26,0,0,1,2.74.42,6.28,6.28,0,0,1,2.18,1.11l-.34.46a6.15,6.15,0,0,0-2.1-1.08,8.65,8.65,0,0,0-2.48-.36,5.4,5.4,0,0,0-3.55.95,3,3,0,0,0-1.11,2.33,2.67,2.67,0,0,0,.54,1.75,3.51,3.51,0,0,0,1.46,1,11.84,11.84,0,0,0,2,.55c.73.13,1.45.27,2.17.43a9.86,9.86,0,0,1,2,.63,3.7,3.7,0,0,1,1.45,1.11,3,3,0,0,1,.55,1.91,3.38,3.38,0,0,1-.61,2,3.88,3.88,0,0,1-1.82,1.37A8.36,8.36,0,0,1,266.05,193.6Z"/><path class="cls-1" d="M308.83,193.51l9.36-20.15h.57l9.36,20.15h-.67l-9.12-19.69h.29l-9.13,19.69Zm3.08-6.07.29-.55h12.52l.29.55Z"/><path class="cls-1" d="M351.72,193.6a7.56,7.56,0,0,1-3.83-1,7.05,7.05,0,0,1-2.63-2.68,7.83,7.83,0,0,1-1-3.9,8.14,8.14,0,0,1,.9-3.9,6.65,6.65,0,0,1,6-3.62,6.78,6.78,0,0,1,3.53.94,6.68,6.68,0,0,1,2.48,2.6,8,8,0,0,1,.9,3.83v.15H344.61v-.55h13.16l-.23.43a7.28,7.28,0,0,0-.84-3.51,6.44,6.44,0,0,0-2.26-2.45,6.42,6.42,0,0,0-6.52,0,6.29,6.29,0,0,0-2.26,2.45,7.51,7.51,0,0,0-.82,3.51v.12a7.27,7.27,0,0,0,.89,3.62,6.42,6.42,0,0,0,2.45,2.48,7,7,0,0,0,3.54.89,7.17,7.17,0,0,0,2.84-.57,5.64,5.64,0,0,0,2.23-1.73l.4.4a6.16,6.16,0,0,1-2.42,1.83A7.66,7.66,0,0,1,351.72,193.6Z"/><path class="cls-1" d="M377.31,193.51V178.63h.58v4.12l-.06-.09a5.66,5.66,0,0,1,2.12-3,6.33,6.33,0,0,1,3.78-1.08v.58h-.17a5.26,5.26,0,0,0-4.18,1.71,6.92,6.92,0,0,0-1.49,4.68v8Z"/><path class="cls-1" d="M403,174.51a.69.69,0,0,1-.52-.23.71.71,0,0,1-.23-.51.73.73,0,0,1,.23-.54A.75.75,0,0,1,403,173a.72.72,0,0,1,.53.21.72.72,0,0,1,.22.54.7.7,0,0,1-.22.51A.67.67,0,0,1,403,174.51Zm-.29,19V178.63h.58v14.88Z"/><path class="cls-1" d="M428.09,193.6a7,7,0,0,1-2.85-.52,4,4,0,0,1-1.8-1.47,3.92,3.92,0,0,1-.62-2.18,4,4,0,0,1,.51-2A3.61,3.61,0,0,1,425,186a7.19,7.19,0,0,1,3.14-.57h6V186h-6a5.34,5.34,0,0,0-3.61,1,3.14,3.14,0,0,0-1.08,2.46,3.22,3.22,0,0,0,1.24,2.66,5.37,5.37,0,0,0,3.45,1,6,6,0,0,0,3.56-1,6.09,6.09,0,0,0,2.11-2.81l.29.38a5.76,5.76,0,0,1-2.11,2.88A6.4,6.4,0,0,1,428.09,193.6Zm5.67-.09v-9.73a4.69,4.69,0,0,0-1.21-3.51,4.83,4.83,0,0,0-3.51-1.18,7.9,7.9,0,0,0-5.41,2.07l-.4-.4a8,8,0,0,1,2.59-1.61,8.62,8.62,0,0,1,3.19-.61,5.48,5.48,0,0,1,4,1.33,5.17,5.17,0,0,1,1.37,3.88v9.76Z"/><path class="cls-1" d="M455.15,193.51V172.15h.58v21.36Z"/><path class="cls-1" d="M495.22,193.51l9.36-20.15h.57l9.36,20.15h-.66l-9.13-19.69H505l-9.13,19.69Zm3.08-6.07.29-.55h12.52l.29.55Z"/><path class="cls-1" d="M537.91,193.6a7.14,7.14,0,0,1-3.68-1,7,7,0,0,1-2.59-2.68,7.82,7.82,0,0,1-.95-3.9,7.72,7.72,0,0,1,.95-3.9,6.87,6.87,0,0,1,2.59-2.65,7.15,7.15,0,0,1,3.68-1,6.93,6.93,0,0,1,6.21,3.62,7.92,7.92,0,0,1,.93,3.9,8,8,0,0,1-.93,3.9,6.84,6.84,0,0,1-6.21,3.64Zm0-.55a6.5,6.5,0,0,0,3.41-.89,6.31,6.31,0,0,0,2.38-2.48,8.09,8.09,0,0,0,0-7.26,6.23,6.23,0,0,0-2.38-2.45,6.59,6.59,0,0,0-3.41-.88,6.52,6.52,0,0,0-3.39.88,6.37,6.37,0,0,0-2.38,2.45,7.93,7.93,0,0,0,0,7.26,6.4,6.4,0,0,0,5.77,3.37Zm6.65.46V188l.29-2-.29-2V172.15h.58v21.36Z"/><path class="cls-1" d="M569.84,193.51,563,178.63h.66l6.59,14.48H570l6.59-14.48h.66l-6.85,14.88Z"/><path class="cls-1" d="M598.94,193.6a7,7,0,0,1-2.85-.52,3.83,3.83,0,0,1-2.42-3.65,4,4,0,0,1,.51-2,3.56,3.56,0,0,1,1.65-1.46,7.19,7.19,0,0,1,3.14-.57h6V186h-6a5.34,5.34,0,0,0-3.61,1,3.14,3.14,0,0,0-1.08,2.46,3.22,3.22,0,0,0,1.24,2.66,5.37,5.37,0,0,0,3.45,1,6,6,0,0,0,3.56-1,6.09,6.09,0,0,0,2.11-2.81l.29.38a5.72,5.72,0,0,1-2.12,2.88A6.35,6.35,0,0,1,598.94,193.6Zm5.67-.09v-9.73a4.69,4.69,0,0,0-1.21-3.51,4.83,4.83,0,0,0-3.51-1.18,7.9,7.9,0,0,0-5.41,2.07l-.4-.4a8,8,0,0,1,2.59-1.61,8.62,8.62,0,0,1,3.19-.61,5.48,5.48,0,0,1,4,1.33,5.17,5.17,0,0,1,1.37,3.88v9.76Z"/><path class="cls-1" d="M626,193.51V178.63h.58v4.23l-.06-.08a6.06,6.06,0,0,1,2.27-3.1,6.82,6.82,0,0,1,4-1.14,6.65,6.65,0,0,1,3.17.71,5,5,0,0,1,2.06,2.09,7.14,7.14,0,0,1,.73,3.39v8.78h-.57v-8.78a5.72,5.72,0,0,0-1.42-4.2,5.26,5.26,0,0,0-3.94-1.44,6.88,6.88,0,0,0-3.37.79,5.37,5.37,0,0,0-2.16,2.22,7.16,7.16,0,0,0-.74,3.32v8.09Z"/><path class="cls-1" d="M657,179.18v-.55h8.49v.55Zm6.47,14.42a3.43,3.43,0,0,1-2.67-1,3.74,3.74,0,0,1-.93-2.65V175.38h.58V189.8a3.42,3.42,0,0,0,.78,2.42,2.93,2.93,0,0,0,2.27.83,3.46,3.46,0,0,0,2.48-.92l.4.41a3.11,3.11,0,0,1-1.31.8A5.2,5.2,0,0,1,663.42,193.6Z"/><path class="cls-1" d="M689,193.6a6.94,6.94,0,0,1-2.85-.52,3.89,3.89,0,0,1-1.8-1.47,3.84,3.84,0,0,1-.62-2.18,4.1,4.1,0,0,1,.5-2,3.64,3.64,0,0,1,1.66-1.46,7.16,7.16,0,0,1,3.14-.57h6V186h-6a5.37,5.37,0,0,0-3.62,1,3.14,3.14,0,0,0-1.08,2.46,3.25,3.25,0,0,0,1.24,2.66,5.42,5.42,0,0,0,3.46,1,6,6,0,0,0,3.55-1,6.1,6.1,0,0,0,2.12-2.81l.29.38a5.78,5.78,0,0,1-2.12,2.88A6.39,6.39,0,0,1,689,193.6Zm5.67-.09v-9.73a4.73,4.73,0,0,0-1.21-3.51,4.87,4.87,0,0,0-3.51-1.18,8,8,0,0,0-5.42,2.07l-.4-.4a8.06,8.06,0,0,1,2.59-1.61,8.67,8.67,0,0,1,3.2-.61,5.51,5.51,0,0,1,4,1.33,5.16,5.16,0,0,1,1.36,3.88v9.76Z"/><path class="cls-1" d="M721.57,193a7.51,7.51,0,0,1-3.73-.93,7,7,0,0,1-2.62-2.58,7.8,7.8,0,0,1,0-7.5,6.94,6.94,0,0,1,2.62-2.54,7.51,7.51,0,0,1,3.73-.93,7.4,7.4,0,0,1,3.73.93,6.72,6.72,0,0,1,2.56,2.54,8,8,0,0,1,0,7.5,6.82,6.82,0,0,1-2.56,2.58A7.4,7.4,0,0,1,721.57,193Zm0-.54a7,7,0,0,0,3.47-.85,6.28,6.28,0,0,0,2.39-2.38,7.32,7.32,0,0,0,0-7,6.34,6.34,0,0,0-2.39-2.35,7.47,7.47,0,0,0-6.92,0,6.33,6.33,0,0,0-2.41,2.35,7.32,7.32,0,0,0,0,7,6.26,6.26,0,0,0,2.41,2.38A7,7,0,0,0,721.57,192.48Zm.43,6.7a10.64,10.64,0,0,1-3.77-.66,7.2,7.2,0,0,1-2.82-1.81l.4-.4a8,8,0,0,0,2.74,1.72,9.44,9.44,0,0,0,3.45.61,6.54,6.54,0,0,0,4.77-1.53c1-1,1.54-2.63,1.54-4.83V187.5l.29-1.73-.29-1.73v-5.41h.57v13.56c0,2.4-.57,4.16-1.71,5.3A7.06,7.06,0,0,1,722,199.18Z"/><path class="cls-1" d="M755.54,193.6a7.54,7.54,0,0,1-3.83-1,7.05,7.05,0,0,1-2.63-2.68,7.73,7.73,0,0,1-1-3.9,8.25,8.25,0,0,1,.89-3.9,6.72,6.72,0,0,1,2.47-2.65,6.6,6.6,0,0,1,3.52-1,6.8,6.8,0,0,1,3.53.94,6.65,6.65,0,0,1,2.47,2.6,7.86,7.86,0,0,1,.91,3.83v.15H748.43v-.55h13.15l-.23.43a7.28,7.28,0,0,0-.83-3.51,6.44,6.44,0,0,0-2.26-2.45,6.42,6.42,0,0,0-6.52,0,6.29,6.29,0,0,0-2.26,2.45,7.39,7.39,0,0,0-.82,3.51v.12a7.27,7.27,0,0,0,.89,3.62,6.42,6.42,0,0,0,2.45,2.48,6.9,6.9,0,0,0,3.54.89,7.2,7.2,0,0,0,2.84-.57,5.64,5.64,0,0,0,2.23-1.73l.4.4a6.16,6.16,0,0,1-2.42,1.83A7.7,7.7,0,0,1,755.54,193.6Z"/></g></g></svg>