<svg width="20" height="21" viewBox="0 0 20 21" fill="none" xmlns="http://www.w3.org/2000/svg">
<path d="M5.00025 1.35729C3.85792 0.214563 1.99909 0.214563 0.856751 1.35729C-0.285584 2.49962 -0.285584 4.35846 0.856751 5.50079C1.49629 6.14072 2.36085 6.422 3.19846 6.34504C2.40097 5.32393 1.7612 4.77304 1.60919 4.58817L0.933323 3.76697L3.34301 1.35729L4.17163 2.18591C4.62755 2.64183 5.20653 3.15635 5.8488 3.64938C5.91197 2.80169 5.60967 1.96674 5.00025 1.35729Z" fill="black"/>
<path d="M5.84802 17.3425C5.21083 17.8375 4.63341 18.3532 4.17554 18.8107L3.34027 19.6405L0.856751 17.157L1.68537 16.3283C2.14129 15.8724 2.65581 15.2934 3.14923 14.6508C2.32725 14.5894 1.48379 14.8723 0.856751 15.4997C-0.285584 16.642 -0.285584 18.5009 0.856751 19.6432C1.99909 20.7855 3.85788 20.7856 5.00025 19.6432C5.62963 19.0138 5.91209 18.1672 5.84802 17.3425Z" fill="black"/>
<path d="M19.1428 1.35727C18.001 0.21466 16.1417 0.214153 14.9993 1.35727C14.3723 1.9843 14.0894 2.82738 14.1508 3.64936C14.793 3.15633 15.372 2.64181 15.8279 2.18589L16.6566 1.35727L19.0663 3.76695L18.3904 4.58815C18.2399 4.77091 17.589 5.33606 16.8015 6.34502C17.6387 6.42198 18.5033 6.14031 19.1428 5.50077C20.2852 4.35844 20.2852 2.4996 19.1428 1.35727Z" fill="black"/>
<path d="M19.1427 15.4997C18.5157 14.8723 17.6722 14.5894 16.8502 14.6508C17.3437 15.2934 17.8582 15.8724 18.3141 16.3283L19.1427 17.157L16.6537 19.646L15.8259 18.8126C15.3669 18.354 14.789 17.8379 14.1515 17.3425C14.0874 18.1672 14.3699 19.0138 14.9992 19.6432C16.1416 20.7859 18.0004 20.7856 19.1427 19.6432C20.2851 18.5009 20.2851 16.642 19.1427 15.4997Z" fill="black"/>
<path d="M13.8398 11.6352C13.6109 10.9034 13.6109 10.0971 13.8398 9.36534C14.8177 6.23916 17.3583 3.99786 17.4856 3.84354L16.6566 3.01453C15.3072 4.36392 13.1483 6.03015 11.1356 6.65992C10.4035 6.88924 9.59632 6.88924 8.8642 6.65992C6.85144 6.03015 4.69257 4.36392 3.34317 3.01453L2.51416 3.84354C2.63683 3.99239 5.18208 6.24033 6.15994 9.36495C6.38888 10.0971 6.38888 10.9034 6.15994 11.6356C5.53017 13.6483 3.86394 15.8076 2.51416 17.157L3.34317 17.986C3.34435 17.9844 3.34591 17.9833 3.34708 17.9817C4.7121 16.6178 6.87253 14.9364 8.84779 14.3027C9.59085 14.0644 10.4089 14.0644 11.152 14.3027C13.1272 14.9364 15.2877 16.6178 16.6527 17.9817C16.6539 17.9833 16.6554 17.9844 16.6566 17.986L17.4856 17.157C16.0464 15.7178 14.4463 13.5741 13.8398 11.6352ZM9.99989 12.2583C9.03062 12.2583 8.24185 11.4695 8.24185 10.5003C8.24185 9.53099 9.03062 8.74222 9.99989 8.74222C10.9692 8.74222 11.7579 9.53099 11.7579 10.5003C11.7579 11.4695 10.9692 12.2583 9.99989 12.2583ZM9.99989 9.91424C9.6768 9.91424 9.41388 10.1772 9.41388 10.5003C9.41388 10.8233 9.6768 11.0863 9.99989 11.0863C10.323 11.0863 10.5859 10.8233 10.5859 10.5003C10.5859 10.1772 10.323 9.91424 9.99989 9.91424Z" fill="black"/>
</svg>
