<svg width="18" height="17" viewBox="0 0 18 17" fill="none" xmlns="http://www.w3.org/2000/svg">
<path d="M12.196 -9.23872e-07H5.821C4.85767 -9.23872e-07 3.96233 0.243666 3.135 0.730999C2.33033 1.19567 1.69567 1.83033 1.231 2.635C0.743667 3.451 0.5 4.34067 0.5 5.304V11.679C0.5 12.6423 0.743667 13.5377 1.231 14.365C1.69567 15.1697 2.33033 15.8043 3.135 16.269C3.96233 16.7563 4.85767 17 5.821 17H12.196C13.1593 17 14.049 16.7563 14.865 16.269C15.6697 15.8043 16.3043 15.1697 16.769 14.365C17.2563 13.5377 17.5 12.6423 17.5 11.679V5.304C17.5 4.34067 17.2563 3.451 16.769 2.635C16.3043 1.83033 15.6697 1.19567 14.865 0.730999C14.049 0.243666 13.1593 -9.23872e-07 12.196 -9.23872e-07ZM15.902 11.679C15.902 12.3477 15.7348 12.9682 15.4005 13.5405C15.0662 14.1128 14.6157 14.5662 14.049 14.9005C13.4823 15.2348 12.8647 15.402 12.196 15.402H5.821C5.141 15.402 4.51767 15.2348 3.951 14.9005C3.38433 14.5662 2.93383 14.1157 2.5995 13.549C2.26517 12.9823 2.098 12.359 2.098 11.679V5.304C2.098 4.63533 2.26517 4.01767 2.5995 3.451C2.93383 2.88433 3.38717 2.43383 3.9595 2.0995C4.53183 1.76517 5.15233 1.598 5.821 1.598H12.196C12.8647 1.598 13.4823 1.76517 14.049 2.0995C14.6157 2.43383 15.0662 2.88433 15.4005 3.451C15.7348 4.01767 15.902 4.63533 15.902 5.304V11.679ZM9 4.25C8.22933 4.25 7.51817 4.43983 6.8665 4.8195C6.21483 5.19917 5.69917 5.71483 5.3195 6.3665C4.93983 7.01817 4.75 7.72933 4.75 8.5C4.75 9.27067 4.93983 9.98183 5.3195 10.6335C5.69917 11.2852 6.21483 11.8008 6.8665 12.1805C7.51817 12.5602 8.22933 12.75 9 12.75C9.77067 12.75 10.4818 12.5602 11.1335 12.1805C11.7852 11.8008 12.3008 11.2852 12.6805 10.6335C13.0602 9.98183 13.25 9.27067 13.25 8.5C13.25 7.72933 13.0602 7.01817 12.6805 6.3665C12.3008 5.71483 11.7852 5.19917 11.1335 4.8195C10.4818 4.43983 9.77067 4.25 9 4.25ZM9 11.152C8.524 11.152 8.082 11.033 7.674 10.795C7.266 10.557 6.943 10.234 6.705 9.826C6.467 9.418 6.348 8.976 6.348 8.5C6.348 8.024 6.467 7.582 6.705 7.174C6.943 6.766 7.266 6.443 7.674 6.205C8.082 5.967 8.524 5.848 9 5.848C9.476 5.848 9.918 5.967 10.326 6.205C10.734 6.443 11.057 6.766 11.295 7.174C11.533 7.582 11.652 8.024 11.652 8.5C11.652 8.976 11.533 9.418 11.295 9.826C11.057 10.234 10.734 10.557 10.326 10.795C9.918 11.033 9.476 11.152 9 11.152ZM13.573 3.366C13.7317 3.366 13.8648 3.41983 13.9725 3.5275C14.0802 3.63517 14.134 3.76833 14.134 3.927C14.134 4.08567 14.0773 4.22167 13.964 4.335C13.8507 4.44833 13.7175 4.505 13.5645 4.505C13.4115 4.505 13.2783 4.44833 13.165 4.335C13.0517 4.22167 12.995 4.08567 12.995 3.927C12.995 3.76833 13.0517 3.63517 13.165 3.5275C13.2783 3.41983 13.4143 3.366 13.573 3.366Z" fill="#FCFCFC"/>
</svg>
