<svg width="20" height="21" viewBox="0 0 20 21" fill="none" xmlns="http://www.w3.org/2000/svg">
<g clip-path="url(#clip0_546_277)">
<path d="M12.2641 8.01949C12.1832 7.92766 12.0975 7.84135 12.0073 7.76074L11.4185 10.116H8.58144L7.99265 7.76074C7.90242 7.84138 7.81673 7.9277 7.73585 8.01949C6.72424 9.16754 6.74975 10.9436 7.79392 12.063C7.99206 12.2754 8.21861 12.4576 8.46719 12.6047L8.75525 12.7751V20H11.2446V12.7751L11.5327 12.6047C11.7813 12.4576 12.0078 12.2754 12.206 12.063C13.2502 10.9436 13.2756 9.16754 12.2641 8.01949Z" fill="white"/>
<path d="M16.6989 11.974L16.8228 11.5527H19.9999V8.44718H16.8229L16.6989 8.02589C16.5595 7.55185 16.3689 7.09206 16.1327 6.65923L15.9221 6.27367L18.169 4.02683L15.973 1.83091L13.7262 4.07774L13.3406 3.86723C12.9078 3.63094 12.448 3.44043 11.974 3.30097L11.5527 3.17702V0H8.44725V3.17706L8.02596 3.30101C7.55174 3.44046 7.09195 3.63102 6.65935 3.86719L6.27375 4.07774L4.02691 1.83091L1.83098 4.02687L4.07778 6.27367L3.86727 6.65923C3.63102 7.09195 3.44054 7.55174 3.30105 8.02589L3.1771 8.44718H0V11.5527H3.17706L3.30101 11.974C3.44046 12.4481 3.63102 12.9079 3.86723 13.3406L4.07778 13.7262L1.83094 15.973L4.02687 18.169L6.27371 15.9221L6.65931 16.1327C6.95602 16.2946 7.26446 16.434 7.58143 16.5505V13.4282C7.34808 13.2629 7.13178 13.074 6.93559 12.8637C6.22902 12.1063 5.8316 11.1137 5.81658 10.069C5.80151 9.024 6.17037 8.02053 6.85514 7.24341C7.20565 6.84564 7.62138 6.52197 8.09076 6.28153L8.74854 5.94452L9.49795 8.9421H10.5019L11.2513 5.94452L11.9091 6.28153C12.3785 6.52201 12.7942 6.84564 13.1447 7.24341C13.8295 8.02053 14.1983 9.024 14.1833 10.069C14.1682 11.1137 13.7708 12.1062 13.0643 12.8636C12.8681 13.0739 12.6518 13.2629 12.4184 13.4282V16.5505C12.7354 16.434 13.0439 16.2947 13.3405 16.1327L13.7261 15.9222L15.9729 18.169L18.1689 15.973L15.9221 13.7262L16.1326 13.3406C16.3689 12.908 16.5594 12.4482 16.6989 11.974Z" fill="white"/>
</g>
<defs>
<clipPath id="clip0_546_277">
<rect width="20" height="20" fill="white"/>
</clipPath>
</defs>
</svg>
