<svg width="24" height="24" viewBox="0 0 24 24" fill="none" xmlns="http://www.w3.org/2000/svg">
<path d="M2.71857 13.3275C2.95857 12.72 3.22857 12.1125 3.52482 11.5613C4.54107 9.6713 4.60857 8.1113 4.58982 7.5113C4.58232 7.2788 4.69857 7.05755 4.90482 6.9338C5.11482 6.8063 5.37732 6.8363 5.58357 6.9713C6.74607 7.7363 7.36482 9.18005 7.06107 10.605C6.79857 11.8238 6.40482 12.9113 6.40482 12.9113L7.71357 11.0213L11.4711 5.0288C11.7786 4.5188 12.4236 4.3463 12.9223 4.64255C13.4248 4.9388 13.6011 5.5988 13.3198 6.1313L10.1848 12.0263L15.0223 7.17005C15.4461 6.7463 16.1173 6.7463 16.5298 7.17005L16.5748 7.2188C16.9873 7.6463 16.9873 8.3363 16.5748 8.77505L11.9173 13.7213L17.0886 10.275C17.5873 9.9413 18.2511 10.0875 18.5698 10.5975L18.5773 10.6088C18.8811 11.1 18.7611 11.7563 18.2998 12.105L13.1548 15.99L17.2273 14.0888C17.7523 13.845 18.3636 14.1113 18.5511 14.67C18.7086 15.1425 18.5061 15.6675 18.0748 15.9038L13.9648 18.2775C13.6273 18.4725 13.3161 18.7125 13.0386 18.99L12.0148 20.0175C9.65232 22.3913 5.77107 22.3388 3.63732 19.7475C3.55107 19.6425 3.46482 19.53 3.38232 19.4175C2.12607 17.67 1.91982 15.3413 2.71107 13.3275H2.71857Z" fill="white"/>
<path d="M9.75 4.5C8.92125 4.5 8.25 5.17125 8.25 6C8.25 6.20625 8.08125 6.375 7.875 6.375C7.66875 6.375 7.5 6.20625 7.5 6C7.5 4.75875 8.50875 3.75 9.75 3.75C9.95625 3.75 10.125 3.91875 10.125 4.125C10.125 4.33125 9.95625 4.5 9.75 4.5Z" fill="white"/>
<path d="M9.375 3C7.9275 3 6.75 4.1775 6.75 5.625C6.75 5.83125 6.58125 6 6.375 6C6.16875 6 6 5.83125 6 5.625C6 3.765 7.515 2.25 9.375 2.25C9.58125 2.25 9.75 2.41875 9.75 2.625C9.75 2.83125 9.58125 3 9.375 3Z" fill="white"/>
<path d="M18 18C18.8288 18 19.5 17.3288 19.5 16.5C19.5 16.2937 19.6687 16.125 19.875 16.125C20.0813 16.125 20.25 16.2937 20.25 16.5C20.25 17.7413 19.2413 18.75 18 18.75C17.7938 18.75 17.625 18.5812 17.625 18.375C17.625 18.1688 17.7938 18 18 18Z" fill="white"/>
<path d="M18.375 19.5C19.8225 19.5 21 18.3225 21 16.875C21 16.6687 21.1687 16.5 21.375 16.5C21.5813 16.5 21.75 16.6687 21.75 16.875C21.75 18.735 20.235 20.25 18.375 20.25C18.1688 20.25 18 20.0812 18 19.875C18 19.6688 18.1688 19.5 18.375 19.5Z" fill="white"/>
</svg>
