<svg width="18" height="18" viewBox="0 0 18 18" fill="none" xmlns="http://www.w3.org/2000/svg">
<path d="M12.196 0.0166006H5.821C4.85767 0.0166006 3.96233 0.260267 3.135 0.747601C2.33033 1.21227 1.69567 1.84693 1.231 2.6516C0.743667 3.4676 0.5 4.35727 0.5 5.3206V11.6956C0.5 12.6589 0.743667 13.5543 1.231 14.3816C1.69567 15.1863 2.33033 15.8209 3.135 16.2856C3.96233 16.7729 4.85767 17.0166 5.821 17.0166H12.196C13.1593 17.0166 14.049 16.7729 14.865 16.2856C15.6697 15.8209 16.3043 15.1863 16.769 14.3816C17.2563 13.5543 17.5 12.6589 17.5 11.6956V5.3206C17.5 4.35727 17.2563 3.4676 16.769 2.6516C16.3043 1.84693 15.6697 1.21227 14.865 0.747601C14.049 0.260267 13.1593 0.0166006 12.196 0.0166006ZM15.902 11.6956C15.902 12.3643 15.7348 12.9848 15.4005 13.5571C15.0662 14.1294 14.6157 14.5828 14.049 14.9171C13.4823 15.2514 12.8647 15.4186 12.196 15.4186H5.821C5.141 15.4186 4.51767 15.2514 3.951 14.9171C3.38433 14.5828 2.93383 14.1323 2.5995 13.5656C2.26517 12.9989 2.098 12.3756 2.098 11.6956V5.3206C2.098 4.65193 2.26517 4.03427 2.5995 3.4676C2.93383 2.90093 3.38717 2.45043 3.9595 2.1161C4.53183 1.78177 5.15233 1.6146 5.821 1.6146H12.196C12.8647 1.6146 13.4823 1.78177 14.049 2.1161C14.6157 2.45043 15.0662 2.90093 15.4005 3.4676C15.7348 4.03427 15.902 4.65193 15.902 5.3206V11.6956ZM9 4.2666C8.22933 4.2666 7.51817 4.45643 6.8665 4.8361C6.21483 5.21577 5.69917 5.73143 5.3195 6.3831C4.93983 7.03477 4.75 7.74593 4.75 8.5166C4.75 9.28727 4.93983 9.99843 5.3195 10.6501C5.69917 11.3018 6.21483 11.8174 6.8665 12.1971C7.51817 12.5768 8.22933 12.7666 9 12.7666C9.77067 12.7666 10.4818 12.5768 11.1335 12.1971C11.7852 11.8174 12.3008 11.3018 12.6805 10.6501C13.0602 9.99843 13.25 9.28727 13.25 8.5166C13.25 7.74593 13.0602 7.03477 12.6805 6.3831C12.3008 5.73143 11.7852 5.21577 11.1335 4.8361C10.4818 4.45643 9.77067 4.2666 9 4.2666ZM9 11.1686C8.524 11.1686 8.082 11.0496 7.674 10.8116C7.266 10.5736 6.943 10.2506 6.705 9.8426C6.467 9.4346 6.348 8.9926 6.348 8.5166C6.348 8.0406 6.467 7.5986 6.705 7.1906C6.943 6.7826 7.266 6.4596 7.674 6.2216C8.082 5.9836 8.524 5.8646 9 5.8646C9.476 5.8646 9.918 5.9836 10.326 6.2216C10.734 6.4596 11.057 6.7826 11.295 7.1906C11.533 7.5986 11.652 8.0406 11.652 8.5166C11.652 8.9926 11.533 9.4346 11.295 9.8426C11.057 10.2506 10.734 10.5736 10.326 10.8116C9.918 11.0496 9.476 11.1686 9 11.1686ZM13.573 3.3826C13.7317 3.3826 13.8648 3.43643 13.9725 3.5441C14.0802 3.65177 14.134 3.78493 14.134 3.9436C14.134 4.10227 14.0773 4.23827 13.964 4.3516C13.8507 4.46493 13.7175 4.5216 13.5645 4.5216C13.4115 4.5216 13.2783 4.46493 13.165 4.3516C13.0517 4.23827 12.995 4.10227 12.995 3.9436C12.995 3.78493 13.0517 3.65177 13.165 3.5441C13.2783 3.43643 13.4143 3.3826 13.573 3.3826Z" fill="#FDFF3A"/>
</svg>
