<svg width="18" height="18" viewBox="0 0 18 18" fill="none" xmlns="http://www.w3.org/2000/svg">
<path d="M9 0.0166006C7.844 0.0166006 6.739 0.237601 5.685 0.679601C4.67633 1.11027 3.77817 1.71943 2.9905 2.5071C2.20283 3.29477 1.59367 4.19293 1.163 5.2016C0.721 6.2556 0.5 7.3606 0.5 8.5166C0.5 9.6726 0.721 10.7776 1.163 11.8316C1.59367 12.8403 2.20283 13.7384 2.9905 14.5261C3.77817 15.3138 4.67633 15.9229 5.685 16.3536C6.739 16.7956 7.844 17.0166 9 17.0166C10.156 17.0166 11.261 16.7956 12.315 16.3536C13.3237 15.9229 14.2218 15.3138 15.0095 14.5261C15.7972 13.7384 16.4063 12.8403 16.837 11.8316C17.279 10.7776 17.5 9.6726 17.5 8.5166C17.5 7.3606 17.2733 6.26127 16.82 5.2186C16.3893 4.1986 15.783 3.2976 15.001 2.5156C14.219 1.7336 13.318 1.12727 12.298 0.696601C11.2553 0.243267 10.156 0.0166006 9 0.0166006ZM14.627 3.9436C15.1483 4.57827 15.5478 5.28377 15.8255 6.0601C16.1032 6.83643 16.2477 7.63827 16.259 8.4656C14.593 8.13693 12.91 8.0576 11.21 8.2276L11.04 7.8536C10.9607 7.6496 10.8303 7.35493 10.649 6.9696L10.564 6.7996C11.3573 6.50493 12.0968 6.11677 12.7825 5.6351C13.4682 5.15343 14.083 4.5896 14.627 3.9436ZM9 1.2746C9.884 1.2746 10.7397 1.43043 11.567 1.7421C12.3943 2.05377 13.1423 2.50427 13.811 3.0936C13.3123 3.7056 12.74 4.2326 12.094 4.6746C11.448 5.1166 10.751 5.46227 10.003 5.7116C9.19833 4.23827 8.29733 2.8216 7.3 1.4616C7.85533 1.33693 8.422 1.2746 9 1.2746ZM5.906 1.9546C6.88067 3.30327 7.78167 4.70293 8.609 6.1536C6.41033 6.7316 4.172 7.02627 1.894 7.0376C2.132 5.92693 2.60233 4.92393 3.305 4.0286C4.00767 3.13327 4.87467 2.44193 5.906 1.9546ZM1.741 8.5336V8.3126C4.27967 8.32393 6.76733 7.97827 9.204 7.2756C9.476 7.8196 9.67433 8.2276 9.799 8.4996L9.51 8.5846C8.286 9.0266 7.16683 9.65843 6.1525 10.4801C5.13817 11.3018 4.291 12.2679 3.611 13.3786C3.01033 12.7099 2.5485 11.9591 2.2255 11.1261C1.9025 10.2931 1.741 9.42893 1.741 8.5336ZM9 15.7926C8.19533 15.7926 7.4105 15.6623 6.6455 15.4016C5.8805 15.1409 5.18067 14.7613 4.546 14.2626C5.16933 13.1746 5.974 12.2396 6.96 11.4576C7.946 10.6756 9.03967 10.0976 10.241 9.7236L10.292 9.7066C10.9833 11.4973 11.499 13.3333 11.839 15.2146C10.9323 15.5999 9.986 15.7926 9 15.7926ZM13.063 14.5516C12.7457 12.7836 12.2753 11.0553 11.652 9.3666C13.182 9.13993 14.6893 9.24193 16.174 9.6726C16.0153 10.6699 15.6668 11.5908 15.1285 12.4351C14.5902 13.2794 13.9017 13.9849 13.063 14.5516Z" fill="#FDFF3A"/>
</svg>
