<svg width="18" height="17" viewBox="0 0 18 17" fill="none" xmlns="http://www.w3.org/2000/svg">
<path d="M9 -9.23872e-07C7.844 -9.23872e-07 6.739 0.220999 5.685 0.662999C4.67633 1.09367 3.77817 1.70283 2.9905 2.4905C2.20283 3.27817 1.59367 4.17633 1.163 5.185C0.721 6.239 0.5 7.344 0.5 8.5C0.5 9.656 0.721 10.761 1.163 11.815C1.59367 12.8237 2.20283 13.7218 2.9905 14.5095C3.77817 15.2972 4.67633 15.9063 5.685 16.337C6.739 16.779 7.844 17 9 17C10.156 17 11.261 16.779 12.315 16.337C13.3237 15.9063 14.2218 15.2972 15.0095 14.5095C15.7972 13.7218 16.4063 12.8237 16.837 11.815C17.279 10.761 17.5 9.656 17.5 8.5C17.5 7.344 17.2733 6.24467 16.82 5.202C16.3893 4.182 15.783 3.281 15.001 2.499C14.219 1.717 13.318 1.11067 12.298 0.679999C11.2553 0.226666 10.156 -9.23872e-07 9 -9.23872e-07ZM14.627 3.927C15.1483 4.56167 15.5478 5.26717 15.8255 6.0435C16.1032 6.81983 16.2477 7.62167 16.259 8.449C14.593 8.12033 12.91 8.041 11.21 8.211L11.04 7.837C10.9607 7.633 10.8303 7.33833 10.649 6.953L10.564 6.783C11.3573 6.48833 12.0968 6.10017 12.7825 5.6185C13.4682 5.13683 14.083 4.573 14.627 3.927ZM9 1.258C9.884 1.258 10.7397 1.41383 11.567 1.7255C12.3943 2.03717 13.1423 2.48767 13.811 3.077C13.3123 3.689 12.74 4.216 12.094 4.658C11.448 5.1 10.751 5.44567 10.003 5.695C9.19833 4.22167 8.29733 2.805 7.3 1.445C7.85533 1.32033 8.422 1.258 9 1.258ZM5.906 1.938C6.88067 3.28667 7.78167 4.68633 8.609 6.137C6.41033 6.715 4.172 7.00967 1.894 7.021C2.132 5.91033 2.60233 4.90733 3.305 4.012C4.00767 3.11667 4.87467 2.42533 5.906 1.938ZM1.741 8.517V8.296C4.27967 8.30733 6.76733 7.96167 9.204 7.259C9.476 7.803 9.67433 8.211 9.799 8.483L9.51 8.568C8.286 9.01 7.16683 9.64183 6.1525 10.4635C5.13817 11.2852 4.291 12.2513 3.611 13.362C3.01033 12.6933 2.5485 11.9425 2.2255 11.1095C1.9025 10.2765 1.741 9.41233 1.741 8.517ZM9 15.776C8.19533 15.776 7.4105 15.6457 6.6455 15.385C5.8805 15.1243 5.18067 14.7447 4.546 14.246C5.16933 13.158 5.974 12.223 6.96 11.441C7.946 10.659 9.03967 10.081 10.241 9.707L10.292 9.69C10.9833 11.4807 11.499 13.3167 11.839 15.198C10.9323 15.5833 9.986 15.776 9 15.776ZM13.063 14.535C12.7457 12.767 12.2753 11.0387 11.652 9.35C13.182 9.12333 14.6893 9.22533 16.174 9.656C16.0153 10.6533 15.6668 11.5742 15.1285 12.4185C14.5902 13.2628 13.9017 13.9683 13.063 14.535Z" fill="#FCFCFC"/>
</svg>
